G04 Layer: TopSilkLayer*
G04 EasyEDA v6.3.22, 2020-03-08T18:10:28+01:00*
G04 ad07acf79a374764822efb46aa97c54e,8b17585b6d3b4194b9f3377f08818917,10*
G04 Gerber Generator version 0.2*
G04 Scale: 100 percent, Rotated: No, Reflected: No *
G04 Dimensions in inches *
G04 leading zeros omitted , absolute positions ,2 integer and 4 decimal *
%FSLAX24Y24*%
%MOIN*%
G90*
G70D02*

%ADD10C,0.010000*%
%ADD20C,0.005000*%
%ADD21C,0.008000*%
%ADD22C,0.007992*%
%ADD23C,0.004724*%
%ADD24C,0.006000*%

%LPD*%
G54D20*
G01X17344Y29832D02*
G01X14785Y29832D01*
G01X14785Y27273D01*
G01X21281Y29832D02*
G01X26005Y29832D01*
G01X29942Y29832D02*
G01X32501Y29832D01*
G01X32501Y27273D01*
G01X32501Y23336D02*
G01X32501Y18611D01*
G01X14785Y23336D02*
G01X14785Y18611D01*
G01X14785Y14674D02*
G01X14785Y12115D01*
G01X17344Y12115D01*
G01X21281Y12115D02*
G01X26005Y12115D01*
G01X29942Y12115D02*
G01X32501Y12115D01*
G01X32501Y14674D01*
G54D10*
G01X1820Y4597D02*
G01X1820Y5502D01*
G01X1820Y5502D02*
G01X4379Y5502D01*
G01X4379Y5490D02*
G01X4379Y4609D01*
G01X4379Y4597D02*
G01X1820Y4597D01*
G01X8120Y4497D02*
G01X8120Y5402D01*
G01X8120Y5402D02*
G01X10679Y5402D01*
G01X10679Y5390D02*
G01X10679Y4509D01*
G01X10679Y4497D02*
G01X8120Y4497D01*
G54D21*
G01X17050Y10400D02*
G01X17050Y9400D01*
G01X13050Y9400D01*
G01X13050Y10400D01*
G01X13800Y10400D01*
G54D22*
G01X17050Y10400D02*
G01X13800Y10400D01*
G54D21*
G01X32900Y8950D02*
G01X32900Y7950D01*
G01X28900Y7950D01*
G01X28900Y8950D01*
G01X29650Y8950D01*
G54D22*
G01X32900Y8950D02*
G01X29650Y8950D01*
G54D21*
G01X33050Y6600D02*
G01X33050Y5600D01*
G01X29050Y5600D01*
G01X29050Y6600D01*
G01X29800Y6600D01*
G54D22*
G01X33050Y6600D02*
G01X29800Y6600D01*
G54D21*
G01X17050Y8200D02*
G01X17050Y7200D01*
G01X13050Y7200D01*
G01X13050Y8200D01*
G01X13800Y8200D01*
G54D22*
G01X17050Y8200D02*
G01X13800Y8200D01*
G54D21*
G01X17100Y5700D02*
G01X17100Y4700D01*
G01X13100Y4700D01*
G01X13100Y5700D01*
G01X13850Y5700D01*
G54D22*
G01X17100Y5700D02*
G01X13850Y5700D01*
G54D10*
G01X27450Y9700D02*
G01X24650Y9700D01*
G01X24650Y9700D02*
G01X24650Y10700D01*
G01X24650Y10700D02*
G01X27450Y10700D01*
G01X27450Y10700D02*
G01X27450Y9700D01*
G01X3700Y12700D02*
G01X10700Y12700D01*
G01X10700Y12700D02*
G01X10700Y29700D01*
G01X10700Y29700D02*
G01X3700Y29700D01*
G01X3700Y29700D02*
G01X3700Y12700D01*
G01X5700Y14200D02*
G01X5700Y11200D01*
G01X8700Y11200D01*
G01X8700Y14200D01*
G01X5700Y14200D01*
G01X18850Y2450D02*
G01X19350Y2450D01*
G01X19350Y2450D02*
G01X19600Y2200D01*
G01X19600Y1700D02*
G01X19350Y1450D01*
G01X19600Y2200D02*
G01X19850Y2450D01*
G01X19850Y2450D02*
G01X20350Y2450D01*
G01X20350Y2450D02*
G01X20600Y2200D01*
G01X20600Y1700D02*
G01X20350Y1450D01*
G01X20350Y1450D02*
G01X19850Y1450D01*
G01X19850Y1450D02*
G01X19600Y1700D01*
G01X18600Y2200D02*
G01X18600Y1700D01*
G01X18850Y2450D02*
G01X18600Y2200D01*
G01X18600Y1700D02*
G01X18850Y1450D01*
G01X19350Y1450D02*
G01X18850Y1450D01*
G01X20600Y2200D02*
G01X20600Y1700D01*
G01X12000Y2500D02*
G01X12500Y2500D01*
G01X12500Y2500D02*
G01X12750Y2250D01*
G01X12750Y1750D02*
G01X12500Y1500D01*
G01X12750Y2250D02*
G01X13000Y2500D01*
G01X13000Y2500D02*
G01X13500Y2500D01*
G01X13500Y2500D02*
G01X13750Y2250D01*
G01X13750Y1750D02*
G01X13500Y1500D01*
G01X13500Y1500D02*
G01X13000Y1500D01*
G01X13000Y1500D02*
G01X12750Y1750D01*
G01X11750Y2250D02*
G01X11750Y1750D01*
G01X12000Y2500D02*
G01X11750Y2250D01*
G01X11750Y1750D02*
G01X12000Y1500D01*
G01X12500Y1500D02*
G01X12000Y1500D01*
G01X13750Y2250D02*
G01X13750Y1750D01*
G01X25000Y2400D02*
G01X25500Y2400D01*
G01X25500Y2400D02*
G01X25750Y2150D01*
G01X25750Y1650D02*
G01X25500Y1400D01*
G01X25750Y2150D02*
G01X26000Y2400D01*
G01X26000Y2400D02*
G01X26500Y2400D01*
G01X26500Y2400D02*
G01X26750Y2150D01*
G01X26750Y1650D02*
G01X26500Y1400D01*
G01X26500Y1400D02*
G01X26000Y1400D01*
G01X26000Y1400D02*
G01X25750Y1650D01*
G01X24750Y2150D02*
G01X24750Y1650D01*
G01X25000Y2400D02*
G01X24750Y2150D01*
G01X24750Y1650D02*
G01X25000Y1400D01*
G01X25500Y1400D02*
G01X25000Y1400D01*
G01X26750Y2150D02*
G01X26750Y1650D01*
G54D23*
G01X23690Y5971D02*
G01X25109Y5971D01*
G54D10*
G01X3050Y3100D02*
G01X3300Y3350D01*
G01X3300Y3350D02*
G01X3800Y3350D01*
G01X3800Y3350D02*
G01X4050Y3100D01*
G01X4050Y2600D02*
G01X3800Y2350D01*
G01X3800Y2350D02*
G01X3300Y2350D01*
G01X3300Y2350D02*
G01X3050Y2600D01*
G01X1300Y3350D02*
G01X1800Y3350D01*
G01X1800Y3350D02*
G01X2050Y3100D01*
G01X2050Y2600D02*
G01X1800Y2350D01*
G01X2050Y3100D02*
G01X2300Y3350D01*
G01X2300Y3350D02*
G01X2800Y3350D01*
G01X2800Y3350D02*
G01X3050Y3100D01*
G01X3050Y2600D02*
G01X2800Y2350D01*
G01X2800Y2350D02*
G01X2300Y2350D01*
G01X2300Y2350D02*
G01X2050Y2600D01*
G01X1050Y3100D02*
G01X1050Y2600D01*
G01X1300Y3350D02*
G01X1050Y3100D01*
G01X1050Y2600D02*
G01X1300Y2350D01*
G01X1800Y2350D02*
G01X1300Y2350D01*
G01X4050Y3100D02*
G01X4050Y2600D01*
G01X1390Y7609D02*
G01X1390Y7409D01*
G01X1390Y7209D01*
G01X1700Y7609D02*
G01X1700Y7409D01*
G01X1700Y7209D01*
G01X1700Y7409D02*
G01X2090Y7409D01*
G01X990Y7409D02*
G01X1390Y7409D01*
G01X1619Y7719D02*
G01X1819Y7919D01*
G01X1619Y7919D01*
G01X1819Y7719D01*
G01X1819Y7919D01*
G01X2450Y8750D02*
G01X2450Y8280D01*
G01X2450Y7250D02*
G01X2450Y7650D01*
G01X6139Y7609D02*
G01X6139Y7409D01*
G01X6139Y7209D01*
G01X6450Y7609D02*
G01X6450Y7409D01*
G01X6450Y7209D01*
G01X6450Y7409D02*
G01X6839Y7409D01*
G01X5739Y7409D02*
G01X6139Y7409D01*
G01X6369Y7719D02*
G01X6569Y7919D01*
G01X6369Y7919D01*
G01X6569Y7719D01*
G01X6569Y7919D01*
G01X7200Y8750D02*
G01X7200Y8280D01*
G01X7200Y7250D02*
G01X7200Y7650D01*
G54D21*
G01X29400Y5061D02*
G01X29472Y5098D01*
G01X29581Y5207D01*
G01X29581Y4444D01*
G01X29857Y5025D02*
G01X29857Y5061D01*
G01X29894Y5134D01*
G01X29931Y5171D01*
G01X30003Y5207D01*
G01X30148Y5207D01*
G01X30222Y5171D01*
G01X30257Y5134D01*
G01X30294Y5061D01*
G01X30294Y4988D01*
G01X30257Y4915D01*
G01X30185Y4807D01*
G01X29822Y4444D01*
G01X30331Y4444D01*
G01X30571Y5207D02*
G01X30861Y4444D01*
G01X31152Y5207D02*
G01X30861Y4444D01*
G01X31952Y4771D02*
G01X32606Y4771D01*
G01X29250Y9861D02*
G01X29322Y9898D01*
G01X29431Y10007D01*
G01X29431Y9244D01*
G01X29707Y9825D02*
G01X29707Y9861D01*
G01X29744Y9934D01*
G01X29781Y9971D01*
G01X29853Y10007D01*
G01X29998Y10007D01*
G01X30072Y9971D01*
G01X30107Y9934D01*
G01X30144Y9861D01*
G01X30144Y9788D01*
G01X30107Y9715D01*
G01X30035Y9607D01*
G01X29672Y9244D01*
G01X30181Y9244D01*
G01X30421Y10007D02*
G01X30711Y9244D01*
G01X31002Y10007D02*
G01X30711Y9244D01*
G01X32130Y9898D02*
G01X32130Y9244D01*
G01X31802Y9571D02*
G01X32456Y9571D01*
G01X22600Y5607D02*
G01X22600Y4844D01*
G01X22600Y5607D02*
G01X22927Y5607D01*
G01X23035Y5571D01*
G01X23072Y5534D01*
G01X23109Y5461D01*
G01X23109Y5388D01*
G01X23072Y5315D01*
G01X23035Y5280D01*
G01X22927Y5244D01*
G01X22600Y5244D02*
G01X22927Y5244D01*
G01X23035Y5207D01*
G01X23072Y5171D01*
G01X23109Y5098D01*
G01X23109Y4988D01*
G01X23072Y4915D01*
G01X23035Y4880D01*
G01X22927Y4844D01*
G01X22600Y4844D01*
G01X23894Y5425D02*
G01X23857Y5498D01*
G01X23785Y5571D01*
G01X23713Y5607D01*
G01X23567Y5607D01*
G01X23494Y5571D01*
G01X23422Y5498D01*
G01X23385Y5425D01*
G01X23348Y5315D01*
G01X23348Y5134D01*
G01X23385Y5025D01*
G01X23422Y4953D01*
G01X23494Y4880D01*
G01X23567Y4844D01*
G01X23713Y4844D01*
G01X23785Y4880D01*
G01X23857Y4953D01*
G01X23894Y5025D01*
G01X24571Y5607D02*
G01X24206Y5607D01*
G01X24171Y5280D01*
G01X24206Y5315D01*
G01X24315Y5353D01*
G01X24425Y5353D01*
G01X24535Y5315D01*
G01X24606Y5244D01*
G01X24643Y5134D01*
G01X24643Y5061D01*
G01X24606Y4953D01*
G01X24535Y4880D01*
G01X24425Y4844D01*
G01X24315Y4844D01*
G01X24206Y4880D01*
G01X24171Y4915D01*
G01X24135Y4988D01*
G01X25247Y5607D02*
G01X24884Y5098D01*
G01X25428Y5098D01*
G01X25247Y5607D02*
G01X25247Y4844D01*
G01X26177Y5607D02*
G01X25814Y4844D01*
G01X25668Y5607D02*
G01X26177Y5607D01*
G54D24*
G01X22700Y1055D02*
G01X22700Y482D01*
G01X22700Y1055D02*
G01X23055Y1055D01*
G01X22700Y782D02*
G01X22918Y782D01*
G01X23561Y865D02*
G01X23561Y482D01*
G01X23561Y782D02*
G01X23506Y836D01*
G01X23452Y865D01*
G01X23371Y865D01*
G01X23315Y836D01*
G01X23261Y782D01*
G01X23235Y701D01*
G01X23235Y646D01*
G01X23261Y565D01*
G01X23315Y509D01*
G01X23371Y482D01*
G01X23452Y482D01*
G01X23506Y509D01*
G01X23561Y565D01*
G01X23742Y865D02*
G01X23742Y482D01*
G01X23742Y755D02*
G01X23823Y836D01*
G01X23877Y865D01*
G01X23960Y865D01*
G01X24014Y836D01*
G01X24042Y755D01*
G01X24042Y482D01*
G01X24642Y1055D02*
G01X24642Y482D01*
G01X24822Y865D02*
G01X24822Y482D01*
G01X24822Y755D02*
G01X24903Y836D01*
G01X24957Y865D01*
G01X25039Y865D01*
G01X25094Y836D01*
G01X25122Y755D01*
G01X25122Y482D01*
G01X25302Y865D02*
G01X25302Y292D01*
G01X25302Y782D02*
G01X25356Y836D01*
G01X25410Y865D01*
G01X25493Y865D01*
G01X25547Y836D01*
G01X25602Y782D01*
G01X25628Y701D01*
G01X25628Y646D01*
G01X25602Y565D01*
G01X25547Y509D01*
G01X25493Y482D01*
G01X25410Y482D01*
G01X25356Y509D01*
G01X25302Y565D01*
G01X25809Y865D02*
G01X25809Y592D01*
G01X25835Y509D01*
G01X25890Y482D01*
G01X25972Y482D01*
G01X26027Y509D01*
G01X26109Y592D01*
G01X26109Y865D02*
G01X26109Y482D01*
G01X26371Y1055D02*
G01X26371Y592D01*
G01X26397Y509D01*
G01X26452Y482D01*
G01X26506Y482D01*
G01X26289Y865D02*
G01X26480Y865D01*
G01X27352Y973D02*
G01X27352Y482D01*
G01X27106Y728D02*
G01X27597Y728D01*
G01X28197Y728D02*
G01X28689Y728D01*
G54D21*
G01X17550Y2021D02*
G01X18205Y2021D01*
G01X21327Y2298D02*
G01X21327Y1644D01*
G01X21000Y1971D02*
G01X21655Y1971D01*
G54D20*
G01X15281Y3205D02*
G01X15100Y2726D01*
G01X15281Y3205D02*
G01X15464Y2726D01*
G01X15168Y2886D02*
G01X15394Y2886D01*
G01X15614Y3044D02*
G01X15614Y2726D01*
G01X15614Y2909D02*
G01X15635Y2976D01*
G01X15681Y3023D01*
G01X15727Y3044D01*
G01X15794Y3044D01*
G01X16218Y3205D02*
G01X16218Y2726D01*
G01X16218Y2976D02*
G01X16172Y3023D01*
G01X16127Y3044D01*
G01X16059Y3044D01*
G01X16014Y3023D01*
G01X15968Y2976D01*
G01X15944Y2909D01*
G01X15944Y2863D01*
G01X15968Y2794D01*
G01X16014Y2750D01*
G01X16059Y2726D01*
G01X16127Y2726D01*
G01X16172Y2750D01*
G01X16218Y2794D01*
G01X16368Y3044D02*
G01X16368Y2817D01*
G01X16390Y2750D01*
G01X16435Y2726D01*
G01X16505Y2726D01*
G01X16550Y2750D01*
G01X16618Y2817D01*
G01X16618Y3044D02*
G01X16618Y2726D01*
G01X16768Y3205D02*
G01X16790Y3182D01*
G01X16814Y3205D01*
G01X16790Y3226D01*
G01X16768Y3205D01*
G01X16790Y3044D02*
G01X16790Y2726D01*
G01X16964Y3044D02*
G01X16964Y2726D01*
G01X16964Y2955D02*
G01X17031Y3023D01*
G01X17077Y3044D01*
G01X17144Y3044D01*
G01X17190Y3023D01*
G01X17214Y2955D01*
G01X17214Y2726D01*
G01X17477Y3044D02*
G01X17431Y3023D01*
G01X17385Y2976D01*
G01X17364Y2909D01*
G01X17364Y2863D01*
G01X17385Y2794D01*
G01X17431Y2750D01*
G01X17477Y2726D01*
G01X17544Y2726D01*
G01X17590Y2750D01*
G01X17635Y2794D01*
G01X17659Y2863D01*
G01X17659Y2909D01*
G01X17635Y2976D01*
G01X17590Y3023D01*
G01X17544Y3044D01*
G01X17477Y3044D01*
G01X18059Y2976D02*
G01X18035Y3023D01*
G01X17968Y3044D01*
G01X17900Y3044D01*
G01X17831Y3023D01*
G01X17809Y2976D01*
G01X17831Y2932D01*
G01X17877Y2909D01*
G01X17990Y2886D01*
G01X18035Y2863D01*
G01X18059Y2817D01*
G01X18059Y2794D01*
G01X18035Y2750D01*
G01X17968Y2726D01*
G01X17900Y2726D01*
G01X17831Y2750D01*
G01X17809Y2794D01*
G01X18831Y3205D02*
G01X18605Y3205D01*
G01X18581Y3000D01*
G01X18605Y3023D01*
G01X18672Y3044D01*
G01X18740Y3044D01*
G01X18809Y3023D01*
G01X18855Y2976D01*
G01X18877Y2909D01*
G01X18877Y2863D01*
G01X18855Y2794D01*
G01X18809Y2750D01*
G01X18740Y2726D01*
G01X18672Y2726D01*
G01X18605Y2750D01*
G01X18581Y2773D01*
G01X18559Y2817D01*
G01X19027Y3205D02*
G01X19209Y2726D01*
G01X19390Y3205D02*
G01X19209Y2726D01*
G01X19890Y3205D02*
G01X19914Y3182D01*
G01X19935Y3205D01*
G01X19914Y3226D01*
G01X19890Y3205D01*
G01X19914Y3044D02*
G01X19914Y2726D01*
G01X20085Y3044D02*
G01X20085Y2726D01*
G01X20085Y2955D02*
G01X20155Y3023D01*
G01X20200Y3044D01*
G01X20268Y3044D01*
G01X20314Y3023D01*
G01X20335Y2955D01*
G01X20335Y2726D01*
G01X20485Y3044D02*
G01X20485Y2567D01*
G01X20485Y2976D02*
G01X20531Y3023D01*
G01X20577Y3044D01*
G01X20644Y3044D01*
G01X20690Y3023D01*
G01X20735Y2976D01*
G01X20759Y2909D01*
G01X20759Y2863D01*
G01X20735Y2794D01*
G01X20690Y2750D01*
G01X20644Y2726D01*
G01X20577Y2726D01*
G01X20531Y2750D01*
G01X20485Y2794D01*
G01X20909Y3044D02*
G01X20909Y2817D01*
G01X20931Y2750D01*
G01X20977Y2726D01*
G01X21044Y2726D01*
G01X21090Y2750D01*
G01X21159Y2817D01*
G01X21159Y3044D02*
G01X21159Y2726D01*
G01X21377Y3205D02*
G01X21377Y2817D01*
G01X21400Y2750D01*
G01X21444Y2726D01*
G01X21490Y2726D01*
G01X21309Y3044D02*
G01X21468Y3044D01*
G01X22059Y3205D02*
G01X22059Y2817D01*
G01X22081Y2750D01*
G01X22127Y2726D01*
G01X22172Y2726D01*
G01X21990Y3044D02*
G01X22150Y3044D01*
G01X22435Y3044D02*
G01X22390Y3023D01*
G01X22344Y2976D01*
G01X22322Y2909D01*
G01X22322Y2863D01*
G01X22344Y2794D01*
G01X22390Y2750D01*
G01X22435Y2726D01*
G01X22505Y2726D01*
G01X22550Y2750D01*
G01X22594Y2794D01*
G01X22618Y2863D01*
G01X22618Y2909D01*
G01X22594Y2976D01*
G01X22550Y3023D01*
G01X22505Y3044D01*
G01X22435Y3044D01*
G01X23300Y3205D02*
G01X23255Y3205D01*
G01X23209Y3182D01*
G01X23185Y3113D01*
G01X23185Y2726D01*
G01X23118Y3044D02*
G01X23277Y3044D01*
G01X23722Y3044D02*
G01X23722Y2726D01*
G01X23722Y2976D02*
G01X23677Y3023D01*
G01X23631Y3044D01*
G01X23564Y3044D01*
G01X23518Y3023D01*
G01X23472Y2976D01*
G01X23450Y2909D01*
G01X23450Y2863D01*
G01X23472Y2794D01*
G01X23518Y2750D01*
G01X23564Y2726D01*
G01X23631Y2726D01*
G01X23677Y2750D01*
G01X23722Y2794D01*
G01X23872Y3044D02*
G01X23872Y2726D01*
G01X23872Y2955D02*
G01X23940Y3023D01*
G01X23985Y3044D01*
G01X24055Y3044D01*
G01X24100Y3023D01*
G01X24122Y2955D01*
G01X24122Y2726D01*
G54D21*
G01X14100Y2071D02*
G01X14755Y2071D01*
G01X10927Y2398D02*
G01X10927Y1744D01*
G01X10600Y2071D02*
G01X11255Y2071D01*
G01X10200Y1011D02*
G01X10272Y1048D01*
G01X10381Y1157D01*
G01X10381Y394D01*
G01X10657Y975D02*
G01X10657Y1011D01*
G01X10694Y1084D01*
G01X10731Y1121D01*
G01X10803Y1157D01*
G01X10948Y1157D01*
G01X11022Y1121D01*
G01X11057Y1084D01*
G01X11094Y1011D01*
G01X11094Y938D01*
G01X11057Y865D01*
G01X10985Y757D01*
G01X10622Y394D01*
G01X11131Y394D01*
G01X11371Y1157D02*
G01X11661Y394D01*
G01X11952Y1157D02*
G01X11661Y394D01*
G01X12752Y1157D02*
G01X12789Y1121D01*
G01X12825Y1157D01*
G01X12789Y1194D01*
G01X12752Y1157D01*
G01X12789Y903D02*
G01X12789Y394D01*
G01X13064Y903D02*
G01X13064Y394D01*
G01X13064Y757D02*
G01X13175Y865D01*
G01X13247Y903D01*
G01X13356Y903D01*
G01X13428Y865D01*
G01X13464Y757D01*
G01X13464Y394D01*
G01X13705Y903D02*
G01X13705Y138D01*
G01X13705Y794D02*
G01X13777Y865D01*
G01X13851Y903D01*
G01X13960Y903D01*
G01X14032Y865D01*
G01X14105Y794D01*
G01X14142Y684D01*
G01X14142Y611D01*
G01X14105Y503D01*
G01X14032Y430D01*
G01X13960Y394D01*
G01X13851Y394D01*
G01X13777Y430D01*
G01X13705Y503D01*
G01X14381Y903D02*
G01X14381Y538D01*
G01X14418Y430D01*
G01X14490Y394D01*
G01X14600Y394D01*
G01X14672Y430D01*
G01X14781Y538D01*
G01X14781Y903D02*
G01X14781Y394D01*
G01X15131Y1157D02*
G01X15131Y538D01*
G01X15167Y430D01*
G01X15239Y394D01*
G01X15313Y394D01*
G01X15022Y903D02*
G01X15276Y903D01*
G54D20*
G01X1250Y4105D02*
G01X1250Y3626D01*
G01X1250Y4105D02*
G01X1409Y4105D01*
G01X1476Y4082D01*
G01X1523Y4036D01*
G01X1544Y3990D01*
G01X1567Y3923D01*
G01X1567Y3809D01*
G01X1544Y3740D01*
G01X1523Y3694D01*
G01X1476Y3650D01*
G01X1409Y3626D01*
G01X1250Y3626D01*
G01X2036Y4036D02*
G01X1990Y4082D01*
G01X1923Y4105D01*
G01X1832Y4105D01*
G01X1763Y4082D01*
G01X1717Y4036D01*
G01X1717Y3990D01*
G01X1740Y3944D01*
G01X1763Y3923D01*
G01X1809Y3900D01*
G01X1944Y3855D01*
G01X1990Y3832D01*
G01X2013Y3809D01*
G01X2036Y3763D01*
G01X2036Y3694D01*
G01X1990Y3650D01*
G01X1923Y3626D01*
G01X1832Y3626D01*
G01X1763Y3650D01*
G01X1717Y3694D01*
G01X2186Y4013D02*
G01X2232Y4036D01*
G01X2300Y4105D01*
G01X2300Y3626D01*
G01X2563Y4105D02*
G01X2494Y4082D01*
G01X2473Y4036D01*
G01X2473Y3990D01*
G01X2494Y3944D01*
G01X2540Y3923D01*
G01X2632Y3900D01*
G01X2700Y3876D01*
G01X2744Y3832D01*
G01X2767Y3786D01*
G01X2767Y3717D01*
G01X2744Y3673D01*
G01X2723Y3650D01*
G01X2655Y3626D01*
G01X2563Y3626D01*
G01X2494Y3650D01*
G01X2473Y3673D01*
G01X2450Y3717D01*
G01X2450Y3786D01*
G01X2473Y3832D01*
G01X2517Y3876D01*
G01X2586Y3900D01*
G01X2676Y3923D01*
G01X2723Y3944D01*
G01X2744Y3990D01*
G01X2744Y4036D01*
G01X2723Y4082D01*
G01X2655Y4105D01*
G01X2563Y4105D01*
G01X2917Y4105D02*
G01X2917Y3626D01*
G01X2917Y4105D02*
G01X3123Y4105D01*
G01X3190Y4082D01*
G01X3213Y4059D01*
G01X3236Y4013D01*
G01X3236Y3967D01*
G01X3213Y3923D01*
G01X3190Y3900D01*
G01X3123Y3876D01*
G01X2917Y3876D02*
G01X3123Y3876D01*
G01X3190Y3855D01*
G01X3213Y3832D01*
G01X3236Y3786D01*
G01X3236Y3717D01*
G01X3213Y3673D01*
G01X3190Y3650D01*
G01X3123Y3626D01*
G01X2917Y3626D01*
G01X3409Y3990D02*
G01X3409Y4013D01*
G01X3432Y4059D01*
G01X3455Y4082D01*
G01X3500Y4105D01*
G01X3590Y4105D01*
G01X3636Y4082D01*
G01X3659Y4059D01*
G01X3682Y4013D01*
G01X3682Y3967D01*
G01X3659Y3923D01*
G01X3613Y3855D01*
G01X3386Y3626D01*
G01X3705Y3626D01*
G01X3990Y4105D02*
G01X3923Y4082D01*
G01X3876Y4013D01*
G01X3855Y3900D01*
G01X3855Y3832D01*
G01X3876Y3717D01*
G01X3923Y3650D01*
G01X3990Y3626D01*
G01X4036Y3626D01*
G01X4105Y3650D01*
G01X4150Y3717D01*
G01X4173Y3832D01*
G01X4173Y3900D01*
G01X4150Y4013D01*
G01X4105Y4082D01*
G01X4036Y4105D01*
G01X3990Y4105D01*
G01X13300Y6605D02*
G01X13300Y6126D01*
G01X13300Y6605D02*
G01X13505Y6605D01*
G01X13572Y6582D01*
G01X13594Y6559D01*
G01X13618Y6513D01*
G01X13618Y6444D01*
G01X13594Y6400D01*
G01X13572Y6376D01*
G01X13505Y6355D01*
G01X13300Y6355D01*
G01X13768Y6605D02*
G01X13881Y6126D01*
G01X13994Y6605D02*
G01X13881Y6126D01*
G01X13994Y6605D02*
G01X14109Y6126D01*
G01X14222Y6605D02*
G01X14109Y6126D01*
G01X14372Y6605D02*
G01X14372Y6126D01*
G01X14372Y6605D02*
G01X14555Y6126D01*
G01X14735Y6605D02*
G01X14555Y6126D01*
G01X14735Y6605D02*
G01X14735Y6126D01*
G01X15235Y6605D02*
G01X15235Y6126D01*
G01X15235Y6605D02*
G01X15440Y6605D01*
G01X15509Y6582D01*
G01X15531Y6559D01*
G01X15555Y6513D01*
G01X15555Y6444D01*
G01X15531Y6400D01*
G01X15509Y6376D01*
G01X15440Y6355D01*
G01X15235Y6355D01*
G01X15705Y6605D02*
G01X15705Y6126D01*
G01X15855Y6605D02*
G01X15855Y6126D01*
G01X15855Y6605D02*
G01X16172Y6126D01*
G01X16172Y6605D02*
G01X16172Y6126D01*
G01X16831Y6694D02*
G01X16785Y6650D01*
G01X16740Y6582D01*
G01X16694Y6490D01*
G01X16672Y6376D01*
G01X16672Y6286D01*
G01X16694Y6173D01*
G01X16740Y6082D01*
G01X16785Y6013D01*
G01X16831Y5967D01*
G01X17255Y6536D02*
G01X17231Y6582D01*
G01X17164Y6605D01*
G01X17118Y6605D01*
G01X17050Y6582D01*
G01X17005Y6513D01*
G01X16981Y6400D01*
G01X16981Y6286D01*
G01X17005Y6194D01*
G01X17050Y6150D01*
G01X17118Y6126D01*
G01X17140Y6126D01*
G01X17209Y6150D01*
G01X17255Y6194D01*
G01X17277Y6263D01*
G01X17277Y6286D01*
G01X17255Y6355D01*
G01X17209Y6400D01*
G01X17140Y6423D01*
G01X17118Y6423D01*
G01X17050Y6400D01*
G01X17005Y6355D01*
G01X16981Y6286D01*
G01X17427Y6694D02*
G01X17472Y6650D01*
G01X17518Y6582D01*
G01X17564Y6490D01*
G01X17585Y6376D01*
G01X17585Y6286D01*
G01X17564Y6173D01*
G01X17518Y6082D01*
G01X17472Y6013D01*
G01X17427Y5967D01*
G01X14290Y8890D02*
G01X14268Y8936D01*
G01X14222Y8982D01*
G01X14177Y9005D01*
G01X14085Y9005D01*
G01X14040Y8982D01*
G01X13994Y8936D01*
G01X13972Y8890D01*
G01X13950Y8823D01*
G01X13950Y8709D01*
G01X13972Y8640D01*
G01X13994Y8594D01*
G01X14040Y8550D01*
G01X14085Y8526D01*
G01X14177Y8526D01*
G01X14222Y8550D01*
G01X14268Y8594D01*
G01X14290Y8640D01*
G01X14290Y8709D01*
G01X14177Y8709D02*
G01X14290Y8709D01*
G01X14440Y8844D02*
G01X14440Y8526D01*
G01X14440Y8709D02*
G01X14464Y8776D01*
G01X14509Y8823D01*
G01X14555Y8844D01*
G01X14622Y8844D01*
G01X14885Y8844D02*
G01X14840Y8823D01*
G01X14794Y8776D01*
G01X14772Y8709D01*
G01X14772Y8663D01*
G01X14794Y8594D01*
G01X14840Y8550D01*
G01X14885Y8526D01*
G01X14955Y8526D01*
G01X15000Y8550D01*
G01X15044Y8594D01*
G01X15068Y8663D01*
G01X15068Y8709D01*
G01X15044Y8776D01*
G01X15000Y8823D01*
G01X14955Y8844D01*
G01X14885Y8844D01*
G01X15218Y8844D02*
G01X15218Y8617D01*
G01X15240Y8550D01*
G01X15285Y8526D01*
G01X15355Y8526D01*
G01X15400Y8550D01*
G01X15468Y8617D01*
G01X15468Y8844D02*
G01X15468Y8526D01*
G01X15618Y8844D02*
G01X15618Y8526D01*
G01X15618Y8755D02*
G01X15685Y8823D01*
G01X15731Y8844D01*
G01X15800Y8844D01*
G01X15844Y8823D01*
G01X15868Y8755D01*
G01X15868Y8526D01*
G01X16290Y9005D02*
G01X16290Y8526D01*
G01X16290Y8776D02*
G01X16244Y8823D01*
G01X16200Y8844D01*
G01X16131Y8844D01*
G01X16085Y8823D01*
G01X16040Y8776D01*
G01X16018Y8709D01*
G01X16018Y8663D01*
G01X16040Y8594D01*
G01X16085Y8550D01*
G01X16131Y8526D01*
G01X16200Y8526D01*
G01X16244Y8550D01*
G01X16290Y8594D01*
G01X13950Y11155D02*
G01X14131Y10676D01*
G01X14314Y11155D02*
G01X14131Y10676D01*
G01X14464Y11155D02*
G01X14464Y10676D01*
G01X14614Y11155D02*
G01X14614Y10676D01*
G01X14614Y11155D02*
G01X14931Y10676D01*
G01X14931Y11155D02*
G01X14931Y10676D01*
G01X15705Y11155D02*
G01X15477Y11155D01*
G01X15455Y10950D01*
G01X15477Y10973D01*
G01X15544Y10994D01*
G01X15614Y10994D01*
G01X15681Y10973D01*
G01X15727Y10926D01*
G01X15750Y10859D01*
G01X15750Y10813D01*
G01X15727Y10744D01*
G01X15681Y10700D01*
G01X15614Y10676D01*
G01X15544Y10676D01*
G01X15477Y10700D01*
G01X15455Y10723D01*
G01X15431Y10767D01*
G01X15900Y11155D02*
G01X16081Y10676D01*
G01X16264Y11155D02*
G01X16081Y10676D01*
G01X400Y2932D02*
G01X809Y2932D01*
G01X4655Y3036D02*
G01X4655Y2626D01*
G01X4450Y2832D02*
G01X4859Y2832D01*
G01X2150Y2105D02*
G01X2150Y1626D01*
G01X2150Y2105D02*
G01X2309Y2105D01*
G01X2376Y2082D01*
G01X2423Y2036D01*
G01X2444Y1990D01*
G01X2467Y1923D01*
G01X2467Y1809D01*
G01X2444Y1740D01*
G01X2423Y1694D01*
G01X2376Y1650D01*
G01X2309Y1626D01*
G01X2150Y1626D01*
G01X2936Y2105D02*
G01X2709Y1626D01*
G01X2617Y2105D02*
G01X2936Y2105D01*
G01X2444Y5255D02*
G01X2694Y5255D01*
G01X2559Y5073D01*
G01X2626Y5073D01*
G01X2673Y5050D01*
G01X2694Y5026D01*
G01X2717Y4959D01*
G01X2717Y4913D01*
G01X2694Y4844D01*
G01X2650Y4800D01*
G01X2582Y4776D01*
G01X2513Y4776D01*
G01X2444Y4800D01*
G01X2423Y4823D01*
G01X2400Y4867D01*
G01X2913Y5255D02*
G01X3163Y5255D01*
G01X3026Y5073D01*
G01X3094Y5073D01*
G01X3140Y5050D01*
G01X3163Y5026D01*
G01X3186Y4959D01*
G01X3186Y4913D01*
G01X3163Y4844D01*
G01X3117Y4800D01*
G01X3050Y4776D01*
G01X2982Y4776D01*
G01X2913Y4800D01*
G01X2890Y4823D01*
G01X2867Y4867D01*
G01X3473Y5255D02*
G01X3405Y5232D01*
G01X3359Y5163D01*
G01X3336Y5050D01*
G01X3336Y4982D01*
G01X3359Y4867D01*
G01X3405Y4800D01*
G01X3473Y4776D01*
G01X3517Y4776D01*
G01X3586Y4800D01*
G01X3632Y4867D01*
G01X3655Y4982D01*
G01X3655Y5050D01*
G01X3632Y5163D01*
G01X3586Y5232D01*
G01X3517Y5255D01*
G01X3473Y5255D01*
G01X8844Y5155D02*
G01X9094Y5155D01*
G01X8959Y4973D01*
G01X9027Y4973D01*
G01X9072Y4950D01*
G01X9094Y4926D01*
G01X9118Y4859D01*
G01X9118Y4813D01*
G01X9094Y4744D01*
G01X9050Y4700D01*
G01X8981Y4676D01*
G01X8914Y4676D01*
G01X8844Y4700D01*
G01X8822Y4723D01*
G01X8800Y4767D01*
G01X9314Y5155D02*
G01X9564Y5155D01*
G01X9427Y4973D01*
G01X9494Y4973D01*
G01X9540Y4950D01*
G01X9564Y4926D01*
G01X9585Y4859D01*
G01X9585Y4813D01*
G01X9564Y4744D01*
G01X9518Y4700D01*
G01X9450Y4676D01*
G01X9381Y4676D01*
G01X9314Y4700D01*
G01X9290Y4723D01*
G01X9268Y4767D01*
G01X9872Y5155D02*
G01X9805Y5132D01*
G01X9759Y5063D01*
G01X9735Y4950D01*
G01X9735Y4882D01*
G01X9759Y4767D01*
G01X9805Y4700D01*
G01X9872Y4676D01*
G01X9918Y4676D01*
G01X9985Y4700D01*
G01X10031Y4767D01*
G01X10055Y4882D01*
G01X10055Y4950D01*
G01X10031Y5063D01*
G01X9985Y5132D01*
G01X9918Y5155D01*
G01X9872Y5155D01*
G01X3100Y8205D02*
G01X3100Y7726D01*
G01X3100Y8205D02*
G01X3259Y8205D01*
G01X3326Y8182D01*
G01X3373Y8136D01*
G01X3394Y8090D01*
G01X3417Y8023D01*
G01X3417Y7909D01*
G01X3394Y7840D01*
G01X3373Y7794D01*
G01X3326Y7750D01*
G01X3259Y7726D01*
G01X3100Y7726D01*
G01X3840Y8205D02*
G01X3613Y8205D01*
G01X3590Y8000D01*
G01X3613Y8023D01*
G01X3682Y8044D01*
G01X3750Y8044D01*
G01X3817Y8023D01*
G01X3863Y7976D01*
G01X3886Y7909D01*
G01X3886Y7863D01*
G01X3863Y7794D01*
G01X3817Y7750D01*
G01X3750Y7726D01*
G01X3682Y7726D01*
G01X3613Y7750D01*
G01X3590Y7773D01*
G01X3567Y7817D01*
G01X7700Y8305D02*
G01X7700Y7826D01*
G01X7700Y8305D02*
G01X7859Y8305D01*
G01X7927Y8282D01*
G01X7972Y8236D01*
G01X7994Y8190D01*
G01X8018Y8123D01*
G01X8018Y8009D01*
G01X7994Y7940D01*
G01X7972Y7894D01*
G01X7927Y7850D01*
G01X7859Y7826D01*
G01X7700Y7826D01*
G01X8394Y8305D02*
G01X8168Y7986D01*
G01X8509Y7986D01*
G01X8394Y8305D02*
G01X8394Y7826D01*
G54D21*
G01X24077Y2248D02*
G01X24077Y1594D01*
G01X23750Y1921D02*
G01X24405Y1921D01*
G01X33877Y2198D02*
G01X33877Y1544D01*
G01X33550Y1871D02*
G01X34205Y1871D01*
G01X27350Y1971D02*
G01X28005Y1971D01*
G54D24*
G01X25650Y7055D02*
G01X25650Y6482D01*
G01X25650Y7055D02*
G01X26031Y6482D01*
G01X26031Y7055D02*
G01X26031Y6482D01*
G01X26211Y7055D02*
G01X26211Y6482D01*
G01X26211Y7055D02*
G01X26456Y7055D01*
G01X26539Y7028D01*
G01X26565Y7001D01*
G01X26593Y6946D01*
G01X26593Y6865D01*
G01X26565Y6809D01*
G01X26539Y6782D01*
G01X26456Y6755D01*
G01X26211Y6755D01*
G01X26773Y7055D02*
G01X26773Y6482D01*
G01X26773Y7055D02*
G01X27155Y6482D01*
G01X27155Y7055D02*
G01X27155Y6482D01*
G01X21900Y11555D02*
G01X21900Y10982D01*
G01X21900Y11555D02*
G01X22144Y11555D01*
G01X22227Y11528D01*
G01X22255Y11501D01*
G01X22281Y11446D01*
G01X22281Y11392D01*
G01X22255Y11336D01*
G01X22227Y11309D01*
G01X22144Y11282D01*
G01X21900Y11282D02*
G01X22144Y11282D01*
G01X22227Y11255D01*
G01X22255Y11228D01*
G01X22281Y11173D01*
G01X22281Y11092D01*
G01X22255Y11036D01*
G01X22227Y11009D01*
G01X22144Y10982D01*
G01X21900Y10982D01*
G01X22789Y11365D02*
G01X22789Y10982D01*
G01X22789Y11282D02*
G01X22735Y11336D01*
G01X22680Y11365D01*
G01X22597Y11365D01*
G01X22543Y11336D01*
G01X22489Y11282D01*
G01X22461Y11201D01*
G01X22461Y11146D01*
G01X22489Y11065D01*
G01X22543Y11009D01*
G01X22597Y10982D01*
G01X22680Y10982D01*
G01X22735Y11009D01*
G01X22789Y11065D01*
G01X23296Y11282D02*
G01X23242Y11336D01*
G01X23186Y11365D01*
G01X23105Y11365D01*
G01X23051Y11336D01*
G01X22996Y11282D01*
G01X22968Y11201D01*
G01X22968Y11146D01*
G01X22996Y11065D01*
G01X23051Y11009D01*
G01X23105Y10982D01*
G01X23186Y10982D01*
G01X23242Y11009D01*
G01X23296Y11065D01*
G01X23476Y11555D02*
G01X23476Y10982D01*
G01X23748Y11365D02*
G01X23476Y11092D01*
G01X23585Y11201D02*
G01X23776Y10982D01*
G01X23956Y11555D02*
G01X23956Y10982D01*
G01X24135Y11555D02*
G01X24164Y11528D01*
G01X24190Y11555D01*
G01X24164Y11582D01*
G01X24135Y11555D01*
G01X24164Y11365D02*
G01X24164Y10982D01*
G01X24697Y11365D02*
G01X24697Y10928D01*
G01X24671Y10846D01*
G01X24643Y10819D01*
G01X24589Y10792D01*
G01X24506Y10792D01*
G01X24452Y10819D01*
G01X24697Y11282D02*
G01X24643Y11336D01*
G01X24589Y11365D01*
G01X24506Y11365D01*
G01X24452Y11336D01*
G01X24397Y11282D01*
G01X24371Y11201D01*
G01X24371Y11146D01*
G01X24397Y11065D01*
G01X24452Y11009D01*
G01X24506Y10982D01*
G01X24589Y10982D01*
G01X24643Y11009D01*
G01X24697Y11065D01*
G01X24877Y11555D02*
G01X24877Y10982D01*
G01X24877Y11255D02*
G01X24960Y11336D01*
G01X25014Y11365D01*
G01X25096Y11365D01*
G01X25151Y11336D01*
G01X25177Y11255D01*
G01X25177Y10982D01*
G01X25439Y11555D02*
G01X25439Y11092D01*
G01X25467Y11009D01*
G01X25522Y10982D01*
G01X25576Y10982D01*
G01X25357Y11365D02*
G01X25548Y11365D01*
G01X26476Y11282D02*
G01X26448Y11336D01*
G01X26367Y11365D01*
G01X26285Y11365D01*
G01X26203Y11336D01*
G01X26176Y11282D01*
G01X26203Y11228D01*
G01X26257Y11201D01*
G01X26394Y11173D01*
G01X26448Y11146D01*
G01X26476Y11092D01*
G01X26476Y11065D01*
G01X26448Y11009D01*
G01X26367Y10982D01*
G01X26285Y10982D01*
G01X26203Y11009D01*
G01X26176Y11065D01*
G01X26656Y11365D02*
G01X26764Y10982D01*
G01X26875Y11365D02*
G01X26764Y10982D01*
G01X26875Y11365D02*
G01X26984Y10982D01*
G01X27093Y11365D02*
G01X26984Y10982D01*
G01X27272Y11555D02*
G01X27300Y11528D01*
G01X27327Y11555D01*
G01X27300Y11582D01*
G01X27272Y11555D01*
G01X27300Y11365D02*
G01X27300Y10982D01*
G01X27589Y11555D02*
G01X27589Y11092D01*
G01X27615Y11009D01*
G01X27671Y10982D01*
G01X27725Y10982D01*
G01X27506Y11365D02*
G01X27697Y11365D01*
G01X28232Y11282D02*
G01X28177Y11336D01*
G01X28123Y11365D01*
G01X28042Y11365D01*
G01X27986Y11336D01*
G01X27932Y11282D01*
G01X27905Y11201D01*
G01X27905Y11146D01*
G01X27932Y11065D01*
G01X27986Y11009D01*
G01X28042Y10982D01*
G01X28123Y10982D01*
G01X28177Y11009D01*
G01X28232Y11065D01*
G01X28413Y11555D02*
G01X28413Y10982D01*
G01X28413Y11255D02*
G01X28494Y11336D01*
G01X28548Y11365D01*
G01X28631Y11365D01*
G01X28685Y11336D01*
G01X28713Y11255D01*
G01X28713Y10982D01*
G01X18968Y26305D02*
G01X18750Y25732D01*
G01X18968Y26305D02*
G01X19185Y25732D01*
G01X18831Y25923D02*
G01X19105Y25923D01*
G01X19365Y26115D02*
G01X19365Y25732D01*
G01X19365Y25951D02*
G01X19393Y26032D01*
G01X19447Y26086D01*
G01X19502Y26115D01*
G01X19585Y26115D01*
G01X20092Y26305D02*
G01X20092Y25732D01*
G01X20092Y26032D02*
G01X20036Y26086D01*
G01X19982Y26115D01*
G01X19901Y26115D01*
G01X19846Y26086D01*
G01X19792Y26032D01*
G01X19764Y25951D01*
G01X19764Y25896D01*
G01X19792Y25815D01*
G01X19846Y25759D01*
G01X19901Y25732D01*
G01X19982Y25732D01*
G01X20036Y25759D01*
G01X20092Y25815D01*
G01X20272Y26115D02*
G01X20272Y25842D01*
G01X20298Y25759D01*
G01X20353Y25732D01*
G01X20435Y25732D01*
G01X20489Y25759D01*
G01X20572Y25842D01*
G01X20572Y26115D02*
G01X20572Y25732D01*
G01X20752Y26305D02*
G01X20778Y26278D01*
G01X20806Y26305D01*
G01X20778Y26332D01*
G01X20752Y26305D01*
G01X20778Y26115D02*
G01X20778Y25732D01*
G01X20985Y26115D02*
G01X20985Y25732D01*
G01X20985Y26005D02*
G01X21068Y26086D01*
G01X21122Y26115D01*
G01X21205Y26115D01*
G01X21259Y26086D01*
G01X21285Y26005D01*
G01X21285Y25732D01*
G01X21602Y26115D02*
G01X21547Y26086D01*
G01X21493Y26032D01*
G01X21465Y25951D01*
G01X21465Y25896D01*
G01X21493Y25815D01*
G01X21547Y25759D01*
G01X21602Y25732D01*
G01X21685Y25732D01*
G01X21739Y25759D01*
G01X21793Y25815D01*
G01X21821Y25896D01*
G01X21821Y25951D01*
G01X21793Y26032D01*
G01X21739Y26086D01*
G01X21685Y26115D01*
G01X21602Y26115D01*
G01X22421Y26305D02*
G01X22421Y25732D01*
G01X22421Y26305D02*
G01X22802Y25732D01*
G01X22802Y26305D02*
G01X22802Y25732D01*
G01X23310Y26115D02*
G01X23310Y25732D01*
G01X23310Y26032D02*
G01X23255Y26086D01*
G01X23201Y26115D01*
G01X23118Y26115D01*
G01X23064Y26086D01*
G01X23010Y26032D01*
G01X22982Y25951D01*
G01X22982Y25896D01*
G01X23010Y25815D01*
G01X23064Y25759D01*
G01X23118Y25732D01*
G01X23201Y25732D01*
G01X23255Y25759D01*
G01X23310Y25815D01*
G01X23489Y26115D02*
G01X23489Y25732D01*
G01X23489Y26005D02*
G01X23572Y26086D01*
G01X23626Y26115D01*
G01X23707Y26115D01*
G01X23763Y26086D01*
G01X23789Y26005D01*
G01X23789Y25732D01*
G01X24106Y26115D02*
G01X24052Y26086D01*
G01X23997Y26032D01*
G01X23969Y25951D01*
G01X23969Y25896D01*
G01X23997Y25815D01*
G01X24052Y25759D01*
G01X24106Y25732D01*
G01X24188Y25732D01*
G01X24243Y25759D01*
G01X24297Y25815D01*
G01X24325Y25896D01*
G01X24325Y25951D01*
G01X24297Y26032D01*
G01X24243Y26086D01*
G01X24188Y26115D01*
G01X24106Y26115D01*
G01X24925Y26115D02*
G01X24925Y25542D01*
G01X24925Y26032D02*
G01X24978Y26086D01*
G01X25034Y26115D01*
G01X25114Y26115D01*
G01X25169Y26086D01*
G01X25225Y26032D01*
G01X25252Y25951D01*
G01X25252Y25896D01*
G01X25225Y25815D01*
G01X25169Y25759D01*
G01X25114Y25732D01*
G01X25034Y25732D01*
G01X24978Y25759D01*
G01X24925Y25815D01*
G01X25568Y26115D02*
G01X25514Y26086D01*
G01X25459Y26032D01*
G01X25431Y25951D01*
G01X25431Y25896D01*
G01X25459Y25815D01*
G01X25514Y25759D01*
G01X25568Y25732D01*
G01X25650Y25732D01*
G01X25705Y25759D01*
G01X25759Y25815D01*
G01X25785Y25896D01*
G01X25785Y25951D01*
G01X25759Y26032D01*
G01X25705Y26086D01*
G01X25650Y26115D01*
G01X25568Y26115D01*
G01X25965Y26115D02*
G01X26075Y25732D01*
G01X26185Y26115D02*
G01X26075Y25732D01*
G01X26185Y26115D02*
G01X26293Y25732D01*
G01X26402Y26115D02*
G01X26293Y25732D01*
G01X26582Y25951D02*
G01X26910Y25951D01*
G01X26910Y26005D01*
G01X26882Y26059D01*
G01X26855Y26086D01*
G01X26801Y26115D01*
G01X26718Y26115D01*
G01X26664Y26086D01*
G01X26610Y26032D01*
G01X26582Y25951D01*
G01X26582Y25896D01*
G01X26610Y25815D01*
G01X26664Y25759D01*
G01X26718Y25732D01*
G01X26801Y25732D01*
G01X26855Y25759D01*
G01X26910Y25815D01*
G01X27089Y26115D02*
G01X27089Y25732D01*
G01X27089Y25951D02*
G01X27117Y26032D01*
G01X27172Y26086D01*
G01X27226Y26115D01*
G01X27307Y26115D01*
G01X27488Y25951D02*
G01X27814Y25951D01*
G01X27814Y26005D01*
G01X27788Y26059D01*
G01X27760Y26086D01*
G01X27706Y26115D01*
G01X27625Y26115D01*
G01X27569Y26086D01*
G01X27514Y26032D01*
G01X27488Y25951D01*
G01X27488Y25896D01*
G01X27514Y25815D01*
G01X27569Y25759D01*
G01X27625Y25732D01*
G01X27706Y25732D01*
G01X27760Y25759D01*
G01X27814Y25815D01*
G01X28322Y26305D02*
G01X28322Y25732D01*
G01X28322Y26032D02*
G01X28268Y26086D01*
G01X28214Y26115D01*
G01X28131Y26115D01*
G01X28077Y26086D01*
G01X28022Y26032D01*
G01X27994Y25951D01*
G01X27994Y25896D01*
G01X28022Y25815D01*
G01X28077Y25759D01*
G01X28131Y25732D01*
G01X28214Y25732D01*
G01X28268Y25759D01*
G01X28322Y25815D01*
G01X18800Y24855D02*
G01X18800Y24282D01*
G01X18800Y24855D02*
G01X19155Y24855D01*
G01X18800Y24582D02*
G01X19018Y24582D01*
G01X19661Y24665D02*
G01X19661Y24282D01*
G01X19661Y24582D02*
G01X19606Y24636D01*
G01X19552Y24665D01*
G01X19471Y24665D01*
G01X19415Y24636D01*
G01X19361Y24582D01*
G01X19335Y24501D01*
G01X19335Y24446D01*
G01X19361Y24365D01*
G01X19415Y24309D01*
G01X19471Y24282D01*
G01X19552Y24282D01*
G01X19606Y24309D01*
G01X19661Y24365D01*
G01X19842Y24665D02*
G01X19842Y24282D01*
G01X19842Y24555D02*
G01X19923Y24636D01*
G01X19977Y24665D01*
G01X20060Y24665D01*
G01X20114Y24636D01*
G01X20142Y24555D01*
G01X20142Y24282D01*
G01X21068Y24582D02*
G01X21014Y24636D01*
G01X20960Y24665D01*
G01X20877Y24665D01*
G01X20823Y24636D01*
G01X20768Y24582D01*
G01X20742Y24501D01*
G01X20742Y24446D01*
G01X20768Y24365D01*
G01X20823Y24309D01*
G01X20877Y24282D01*
G01X20960Y24282D01*
G01X21014Y24309D01*
G01X21068Y24365D01*
G01X21385Y24665D02*
G01X21331Y24636D01*
G01X21276Y24582D01*
G01X21248Y24501D01*
G01X21248Y24446D01*
G01X21276Y24365D01*
G01X21331Y24309D01*
G01X21385Y24282D01*
G01X21467Y24282D01*
G01X21522Y24309D01*
G01X21576Y24365D01*
G01X21603Y24446D01*
G01X21603Y24501D01*
G01X21576Y24582D01*
G01X21522Y24636D01*
G01X21467Y24665D01*
G01X21385Y24665D01*
G01X21784Y24665D02*
G01X21784Y24282D01*
G01X21784Y24555D02*
G01X21864Y24636D01*
G01X21919Y24665D01*
G01X22002Y24665D01*
G01X22056Y24636D01*
G01X22084Y24555D01*
G01X22084Y24282D01*
G01X22344Y24855D02*
G01X22344Y24392D01*
G01X22372Y24309D01*
G01X22427Y24282D01*
G01X22481Y24282D01*
G01X22264Y24665D02*
G01X22455Y24665D01*
G01X22661Y24665D02*
G01X22661Y24282D01*
G01X22661Y24501D02*
G01X22689Y24582D01*
G01X22743Y24636D01*
G01X22797Y24665D01*
G01X22880Y24665D01*
G01X23196Y24665D02*
G01X23142Y24636D01*
G01X23086Y24582D01*
G01X23060Y24501D01*
G01X23060Y24446D01*
G01X23086Y24365D01*
G01X23142Y24309D01*
G01X23196Y24282D01*
G01X23277Y24282D01*
G01X23332Y24309D01*
G01X23386Y24365D01*
G01X23414Y24446D01*
G01X23414Y24501D01*
G01X23386Y24582D01*
G01X23332Y24636D01*
G01X23277Y24665D01*
G01X23196Y24665D01*
G01X23594Y24855D02*
G01X23594Y24282D01*
G01X23775Y24855D02*
G01X23775Y24282D01*
G01X23955Y24501D02*
G01X24281Y24501D01*
G01X24281Y24555D01*
G01X24255Y24609D01*
G01X24227Y24636D01*
G01X24172Y24665D01*
G01X24090Y24665D01*
G01X24035Y24636D01*
G01X23981Y24582D01*
G01X23955Y24501D01*
G01X23955Y24446D01*
G01X23981Y24365D01*
G01X24035Y24309D01*
G01X24090Y24282D01*
G01X24172Y24282D01*
G01X24227Y24309D01*
G01X24281Y24365D01*
G01X24461Y24665D02*
G01X24461Y24282D01*
G01X24461Y24501D02*
G01X24489Y24582D01*
G01X24543Y24636D01*
G01X24597Y24665D01*
G01X24680Y24665D01*
G01X25280Y24855D02*
G01X25280Y24282D01*
G01X25280Y24582D02*
G01X25335Y24636D01*
G01X25389Y24665D01*
G01X25471Y24665D01*
G01X25525Y24636D01*
G01X25580Y24582D01*
G01X25606Y24501D01*
G01X25606Y24446D01*
G01X25580Y24365D01*
G01X25525Y24309D01*
G01X25471Y24282D01*
G01X25389Y24282D01*
G01X25335Y24309D01*
G01X25280Y24365D01*
G01X25923Y24665D02*
G01X25868Y24636D01*
G01X25814Y24582D01*
G01X25786Y24501D01*
G01X25786Y24446D01*
G01X25814Y24365D01*
G01X25868Y24309D01*
G01X25923Y24282D01*
G01X26005Y24282D01*
G01X26060Y24309D01*
G01X26114Y24365D01*
G01X26142Y24446D01*
G01X26142Y24501D01*
G01X26114Y24582D01*
G01X26060Y24636D01*
G01X26005Y24665D01*
G01X25923Y24665D01*
G01X26648Y24665D02*
G01X26648Y24282D01*
G01X26648Y24582D02*
G01X26594Y24636D01*
G01X26539Y24665D01*
G01X26457Y24665D01*
G01X26403Y24636D01*
G01X26348Y24582D01*
G01X26322Y24501D01*
G01X26322Y24446D01*
G01X26348Y24365D01*
G01X26403Y24309D01*
G01X26457Y24282D01*
G01X26539Y24282D01*
G01X26594Y24309D01*
G01X26648Y24365D01*
G01X26828Y24665D02*
G01X26828Y24282D01*
G01X26828Y24501D02*
G01X26856Y24582D01*
G01X26910Y24636D01*
G01X26964Y24665D01*
G01X27047Y24665D01*
G01X27555Y24855D02*
G01X27555Y24282D01*
G01X27555Y24582D02*
G01X27500Y24636D01*
G01X27444Y24665D01*
G01X27364Y24665D01*
G01X27309Y24636D01*
G01X27255Y24582D01*
G01X27227Y24501D01*
G01X27227Y24446D01*
G01X27255Y24365D01*
G01X27309Y24309D01*
G01X27364Y24282D01*
G01X27444Y24282D01*
G01X27500Y24309D01*
G01X27555Y24365D01*
G01X18800Y23405D02*
G01X18800Y22996D01*
G01X18827Y22915D01*
G01X18881Y22859D01*
G01X18964Y22832D01*
G01X19018Y22832D01*
G01X19100Y22859D01*
G01X19155Y22915D01*
G01X19181Y22996D01*
G01X19181Y23405D01*
G01X19661Y23132D02*
G01X19635Y23186D01*
G01X19552Y23215D01*
G01X19471Y23215D01*
G01X19389Y23186D01*
G01X19361Y23132D01*
G01X19389Y23078D01*
G01X19443Y23051D01*
G01X19580Y23023D01*
G01X19635Y22996D01*
G01X19661Y22942D01*
G01X19661Y22915D01*
G01X19635Y22859D01*
G01X19552Y22832D01*
G01X19471Y22832D01*
G01X19389Y22859D01*
G01X19361Y22915D01*
G01X19842Y23405D02*
G01X19868Y23378D01*
G01X19896Y23405D01*
G01X19868Y23432D01*
G01X19842Y23405D01*
G01X19868Y23215D02*
G01X19868Y22832D01*
G01X20076Y23215D02*
G01X20076Y22832D01*
G01X20076Y23105D02*
G01X20157Y23186D01*
G01X20213Y23215D01*
G01X20294Y23215D01*
G01X20348Y23186D01*
G01X20376Y23105D01*
G01X20376Y22832D01*
G01X20884Y23215D02*
G01X20884Y22778D01*
G01X20856Y22696D01*
G01X20828Y22669D01*
G01X20775Y22642D01*
G01X20693Y22642D01*
G01X20638Y22669D01*
G01X20884Y23132D02*
G01X20828Y23186D01*
G01X20775Y23215D01*
G01X20693Y23215D01*
G01X20638Y23186D01*
G01X20584Y23132D01*
G01X20556Y23051D01*
G01X20556Y22996D01*
G01X20584Y22915D01*
G01X20638Y22859D01*
G01X20693Y22832D01*
G01X20775Y22832D01*
G01X20828Y22859D01*
G01X20884Y22915D01*
G01X21484Y23405D02*
G01X21484Y22832D01*
G01X21484Y23405D02*
G01X21728Y23405D01*
G01X21810Y23378D01*
G01X21838Y23351D01*
G01X21864Y23296D01*
G01X21864Y23242D01*
G01X21838Y23186D01*
G01X21810Y23159D01*
G01X21728Y23132D01*
G01X21484Y23132D02*
G01X21728Y23132D01*
G01X21810Y23105D01*
G01X21838Y23078D01*
G01X21864Y23023D01*
G01X21864Y22942D01*
G01X21838Y22886D01*
G01X21810Y22859D01*
G01X21728Y22832D01*
G01X21484Y22832D01*
G01X22455Y23269D02*
G01X22427Y23323D01*
G01X22372Y23378D01*
G01X22318Y23405D01*
G01X22209Y23405D01*
G01X22155Y23378D01*
G01X22100Y23323D01*
G01X22072Y23269D01*
G01X22044Y23186D01*
G01X22044Y23051D01*
G01X22072Y22969D01*
G01X22100Y22915D01*
G01X22155Y22859D01*
G01X22209Y22832D01*
G01X22318Y22832D01*
G01X22372Y22859D01*
G01X22427Y22915D01*
G01X22455Y22969D01*
G01X22961Y23405D02*
G01X22689Y23405D01*
G01X22661Y23159D01*
G01X22689Y23186D01*
G01X22771Y23215D01*
G01X22852Y23215D01*
G01X22935Y23186D01*
G01X22989Y23132D01*
G01X23015Y23051D01*
G01X23015Y22996D01*
G01X22989Y22915D01*
G01X22935Y22859D01*
G01X22852Y22832D01*
G01X22771Y22832D01*
G01X22689Y22859D01*
G01X22661Y22886D01*
G01X22635Y22942D01*
G01X23468Y23405D02*
G01X23196Y23023D01*
G01X23605Y23023D01*
G01X23468Y23405D02*
G01X23468Y22832D01*
G01X24167Y23405D02*
G01X23894Y22832D01*
G01X23785Y23405D02*
G01X24167Y23405D01*
G01X24767Y23405D02*
G01X24767Y22832D01*
G01X24767Y23405D02*
G01X25148Y22832D01*
G01X25148Y23405D02*
G01X25148Y22832D01*
G01X25328Y23405D02*
G01X25328Y22832D01*
G01X25328Y23405D02*
G01X25575Y23405D01*
G01X25656Y23378D01*
G01X25684Y23351D01*
G01X25710Y23296D01*
G01X25710Y23215D01*
G01X25684Y23159D01*
G01X25656Y23132D01*
G01X25575Y23105D01*
G01X25328Y23105D01*
G01X25890Y23405D02*
G01X25890Y22832D01*
G01X25890Y23405D02*
G01X26272Y22832D01*
G01X26272Y23405D02*
G01X26272Y22832D01*
G01X18800Y22105D02*
G01X18800Y21532D01*
G01X18800Y22105D02*
G01X19155Y22105D01*
G01X18800Y21832D02*
G01X19018Y21832D01*
G01X19471Y21915D02*
G01X19415Y21886D01*
G01X19361Y21832D01*
G01X19335Y21751D01*
G01X19335Y21696D01*
G01X19361Y21615D01*
G01X19415Y21559D01*
G01X19471Y21532D01*
G01X19552Y21532D01*
G01X19606Y21559D01*
G01X19661Y21615D01*
G01X19689Y21696D01*
G01X19689Y21751D01*
G01X19661Y21832D01*
G01X19606Y21886D01*
G01X19552Y21915D01*
G01X19471Y21915D01*
G01X19868Y21915D02*
G01X19868Y21532D01*
G01X19868Y21751D02*
G01X19896Y21832D01*
G01X19951Y21886D01*
G01X20005Y21915D01*
G01X20086Y21915D01*
G01X20686Y21751D02*
G01X21014Y21751D01*
G01X21014Y21805D01*
G01X20986Y21859D01*
G01X20960Y21886D01*
G01X20905Y21915D01*
G01X20823Y21915D01*
G01X20768Y21886D01*
G01X20714Y21832D01*
G01X20686Y21751D01*
G01X20686Y21696D01*
G01X20714Y21615D01*
G01X20768Y21559D01*
G01X20823Y21532D01*
G01X20905Y21532D01*
G01X20960Y21559D01*
G01X21014Y21615D01*
G01X21522Y22105D02*
G01X21522Y21532D01*
G01X21522Y21832D02*
G01X21467Y21886D01*
G01X21413Y21915D01*
G01X21331Y21915D01*
G01X21276Y21886D01*
G01X21222Y21832D01*
G01X21194Y21751D01*
G01X21194Y21696D01*
G01X21222Y21615D01*
G01X21276Y21559D01*
G01X21331Y21532D01*
G01X21413Y21532D01*
G01X21467Y21559D01*
G01X21522Y21615D01*
G01X21702Y21915D02*
G01X21702Y21642D01*
G01X21728Y21559D01*
G01X21784Y21532D01*
G01X21864Y21532D01*
G01X21919Y21559D01*
G01X22002Y21642D01*
G01X22002Y21915D02*
G01X22002Y21532D01*
G01X22509Y21832D02*
G01X22455Y21886D01*
G01X22400Y21915D01*
G01X22318Y21915D01*
G01X22264Y21886D01*
G01X22209Y21832D01*
G01X22181Y21751D01*
G01X22181Y21696D01*
G01X22209Y21615D01*
G01X22264Y21559D01*
G01X22318Y21532D01*
G01X22400Y21532D01*
G01X22455Y21559D01*
G01X22509Y21615D01*
G01X23015Y21915D02*
G01X23015Y21532D01*
G01X23015Y21832D02*
G01X22961Y21886D01*
G01X22906Y21915D01*
G01X22825Y21915D01*
G01X22771Y21886D01*
G01X22715Y21832D01*
G01X22689Y21751D01*
G01X22689Y21696D01*
G01X22715Y21615D01*
G01X22771Y21559D01*
G01X22825Y21532D01*
G01X22906Y21532D01*
G01X22961Y21559D01*
G01X23015Y21615D01*
G01X23277Y22105D02*
G01X23277Y21642D01*
G01X23305Y21559D01*
G01X23360Y21532D01*
G01X23414Y21532D01*
G01X23196Y21915D02*
G01X23386Y21915D01*
G01X23594Y22105D02*
G01X23622Y22078D01*
G01X23648Y22105D01*
G01X23622Y22132D01*
G01X23594Y22105D01*
G01X23622Y21915D02*
G01X23622Y21532D01*
G01X23964Y21915D02*
G01X23910Y21886D01*
G01X23856Y21832D01*
G01X23828Y21751D01*
G01X23828Y21696D01*
G01X23856Y21615D01*
G01X23910Y21559D01*
G01X23964Y21532D01*
G01X24047Y21532D01*
G01X24102Y21559D01*
G01X24156Y21615D01*
G01X24184Y21696D01*
G01X24184Y21751D01*
G01X24156Y21832D01*
G01X24102Y21886D01*
G01X24047Y21915D01*
G01X23964Y21915D01*
G01X24364Y21915D02*
G01X24364Y21532D01*
G01X24364Y21805D02*
G01X24444Y21886D01*
G01X24500Y21915D01*
G01X24581Y21915D01*
G01X24635Y21886D01*
G01X24664Y21805D01*
G01X24664Y21532D01*
G01X18918Y20905D02*
G01X18700Y20332D01*
G01X18918Y20905D02*
G01X19135Y20332D01*
G01X18781Y20523D02*
G01X19055Y20523D01*
G01X19397Y20905D02*
G01X19397Y20442D01*
G01X19425Y20359D01*
G01X19480Y20332D01*
G01X19535Y20332D01*
G01X19315Y20715D02*
G01X19506Y20715D01*
G01X19714Y20715D02*
G01X19714Y20332D01*
G01X19714Y20605D02*
G01X19796Y20686D01*
G01X19851Y20715D01*
G01X19932Y20715D01*
G01X19986Y20686D01*
G01X20014Y20605D01*
G01X20014Y20332D01*
G01X20014Y20605D02*
G01X20096Y20686D01*
G01X20151Y20715D01*
G01X20232Y20715D01*
G01X20286Y20686D01*
G01X20314Y20605D01*
G01X20314Y20332D01*
G01X20494Y20551D02*
G01X20822Y20551D01*
G01X20822Y20605D01*
G01X20794Y20659D01*
G01X20767Y20686D01*
G01X20713Y20715D01*
G01X20631Y20715D01*
G01X20576Y20686D01*
G01X20522Y20632D01*
G01X20494Y20551D01*
G01X20494Y20496D01*
G01X20522Y20415D01*
G01X20576Y20359D01*
G01X20631Y20332D01*
G01X20713Y20332D01*
G01X20767Y20359D01*
G01X20822Y20415D01*
G01X21328Y20715D02*
G01X21328Y20278D01*
G01X21302Y20196D01*
G01X21275Y20169D01*
G01X21219Y20142D01*
G01X21138Y20142D01*
G01X21084Y20169D01*
G01X21328Y20632D02*
G01X21275Y20686D01*
G01X21219Y20715D01*
G01X21138Y20715D01*
G01X21084Y20686D01*
G01X21028Y20632D01*
G01X21002Y20551D01*
G01X21002Y20496D01*
G01X21028Y20415D01*
G01X21084Y20359D01*
G01X21138Y20332D01*
G01X21219Y20332D01*
G01X21275Y20359D01*
G01X21328Y20415D01*
G01X21835Y20715D02*
G01X21835Y20332D01*
G01X21835Y20632D02*
G01X21781Y20686D01*
G01X21727Y20715D01*
G01X21644Y20715D01*
G01X21590Y20686D01*
G01X21535Y20632D01*
G01X21509Y20551D01*
G01X21509Y20496D01*
G01X21535Y20415D01*
G01X21590Y20359D01*
G01X21644Y20332D01*
G01X21727Y20332D01*
G01X21781Y20359D01*
G01X21835Y20415D01*
G01X22015Y20796D02*
G01X22071Y20823D01*
G01X22152Y20905D01*
G01X22152Y20332D01*
G01X22660Y20823D02*
G01X22632Y20878D01*
G01X22551Y20905D01*
G01X22496Y20905D01*
G01X22414Y20878D01*
G01X22360Y20796D01*
G01X22332Y20659D01*
G01X22332Y20523D01*
G01X22360Y20415D01*
G01X22414Y20359D01*
G01X22496Y20332D01*
G01X22523Y20332D01*
G01X22605Y20359D01*
G01X22660Y20415D01*
G01X22686Y20496D01*
G01X22686Y20523D01*
G01X22660Y20605D01*
G01X22605Y20659D01*
G01X22523Y20686D01*
G01X22496Y20686D01*
G01X22414Y20659D01*
G01X22360Y20605D01*
G01X22332Y20523D01*
G01X23003Y20905D02*
G01X22922Y20878D01*
G01X22894Y20823D01*
G01X22894Y20769D01*
G01X22922Y20715D01*
G01X22976Y20686D01*
G01X23085Y20659D01*
G01X23167Y20632D01*
G01X23222Y20578D01*
G01X23248Y20523D01*
G01X23248Y20442D01*
G01X23222Y20386D01*
G01X23194Y20359D01*
G01X23113Y20332D01*
G01X23003Y20332D01*
G01X22922Y20359D01*
G01X22894Y20386D01*
G01X22867Y20442D01*
G01X22867Y20523D01*
G01X22894Y20578D01*
G01X22948Y20632D01*
G01X23031Y20659D01*
G01X23139Y20686D01*
G01X23194Y20715D01*
G01X23222Y20769D01*
G01X23222Y20823D01*
G01X23194Y20878D01*
G01X23113Y20905D01*
G01X23003Y20905D01*
G01X23919Y21015D02*
G01X23428Y20142D01*
G01X24155Y20905D02*
G01X24455Y20905D01*
G01X24290Y20686D01*
G01X24372Y20686D01*
G01X24427Y20659D01*
G01X24455Y20632D01*
G01X24481Y20551D01*
G01X24481Y20496D01*
G01X24455Y20415D01*
G01X24400Y20359D01*
G01X24318Y20332D01*
G01X24235Y20332D01*
G01X24155Y20359D01*
G01X24127Y20386D01*
G01X24100Y20442D01*
G01X24689Y20769D02*
G01X24689Y20796D01*
G01X24715Y20851D01*
G01X24743Y20878D01*
G01X24797Y20905D01*
G01X24906Y20905D01*
G01X24961Y20878D01*
G01X24989Y20851D01*
G01X25015Y20796D01*
G01X25015Y20742D01*
G01X24989Y20686D01*
G01X24935Y20605D01*
G01X24661Y20332D01*
G01X25043Y20332D01*
G01X25360Y20905D02*
G01X25277Y20878D01*
G01X25251Y20823D01*
G01X25251Y20769D01*
G01X25277Y20715D01*
G01X25332Y20686D01*
G01X25442Y20659D01*
G01X25523Y20632D01*
G01X25577Y20578D01*
G01X25605Y20523D01*
G01X25605Y20442D01*
G01X25577Y20386D01*
G01X25551Y20359D01*
G01X25468Y20332D01*
G01X25360Y20332D01*
G01X25277Y20359D01*
G01X25251Y20386D01*
G01X25223Y20442D01*
G01X25223Y20523D01*
G01X25251Y20578D01*
G01X25305Y20632D01*
G01X25386Y20659D01*
G01X25496Y20686D01*
G01X25551Y20715D01*
G01X25577Y20769D01*
G01X25577Y20823D01*
G01X25551Y20878D01*
G01X25468Y20905D01*
G01X25360Y20905D01*
G54D20*
G01X17550Y5655D02*
G01X17550Y5176D01*
G01X17881Y5655D02*
G01X17835Y5655D01*
G01X17790Y5632D01*
G01X17768Y5563D01*
G01X17768Y5176D01*
G01X17700Y5494D02*
G01X17859Y5494D01*
G01X18381Y5494D02*
G01X18381Y5267D01*
G01X18405Y5200D01*
G01X18450Y5176D01*
G01X18518Y5176D01*
G01X18564Y5200D01*
G01X18631Y5267D01*
G01X18631Y5494D02*
G01X18631Y5176D01*
G01X19031Y5426D02*
G01X19009Y5473D01*
G01X18940Y5494D01*
G01X18872Y5494D01*
G01X18805Y5473D01*
G01X18781Y5426D01*
G01X18805Y5382D01*
G01X18850Y5359D01*
G01X18964Y5336D01*
G01X19009Y5313D01*
G01X19031Y5267D01*
G01X19031Y5244D01*
G01X19009Y5200D01*
G01X18940Y5176D01*
G01X18872Y5176D01*
G01X18805Y5200D01*
G01X18781Y5244D01*
G01X19181Y5655D02*
G01X19205Y5632D01*
G01X19227Y5655D01*
G01X19205Y5676D01*
G01X19181Y5655D01*
G01X19205Y5494D02*
G01X19205Y5176D01*
G01X19377Y5494D02*
G01X19377Y5176D01*
G01X19377Y5405D02*
G01X19444Y5473D01*
G01X19490Y5494D01*
G01X19559Y5494D01*
G01X19605Y5473D01*
G01X19627Y5405D01*
G01X19627Y5176D01*
G01X20050Y5494D02*
G01X20050Y5132D01*
G01X20027Y5063D01*
G01X20005Y5040D01*
G01X19959Y5017D01*
G01X19890Y5017D01*
G01X19844Y5040D01*
G01X20050Y5426D02*
G01X20005Y5473D01*
G01X19959Y5494D01*
G01X19890Y5494D01*
G01X19844Y5473D01*
G01X19800Y5426D01*
G01X19777Y5359D01*
G01X19777Y5313D01*
G01X19800Y5244D01*
G01X19844Y5200D01*
G01X19890Y5176D01*
G01X19959Y5176D01*
G01X20005Y5200D01*
G01X20050Y5244D01*
G01X20550Y5563D02*
G01X20594Y5586D01*
G01X20664Y5655D01*
G01X20664Y5176D01*
G01X20835Y5540D02*
G01X20835Y5563D01*
G01X20859Y5609D01*
G01X20881Y5632D01*
G01X20927Y5655D01*
G01X21018Y5655D01*
G01X21064Y5632D01*
G01X21085Y5609D01*
G01X21109Y5563D01*
G01X21109Y5517D01*
G01X21085Y5473D01*
G01X21040Y5405D01*
G01X20814Y5176D01*
G01X21131Y5176D01*
G01X21281Y5655D02*
G01X21464Y5176D01*
G01X21644Y5655D02*
G01X21464Y5176D01*
G01X18122Y4905D02*
G01X18122Y4426D01*
G01X18122Y4676D02*
G01X18077Y4723D01*
G01X18031Y4744D01*
G01X17964Y4744D01*
G01X17918Y4723D01*
G01X17872Y4676D01*
G01X17850Y4609D01*
G01X17850Y4563D01*
G01X17872Y4494D01*
G01X17918Y4450D01*
G01X17964Y4426D01*
G01X18031Y4426D01*
G01X18077Y4450D01*
G01X18122Y4494D01*
G01X18385Y4744D02*
G01X18340Y4723D01*
G01X18294Y4676D01*
G01X18272Y4609D01*
G01X18272Y4563D01*
G01X18294Y4494D01*
G01X18340Y4450D01*
G01X18385Y4426D01*
G01X18455Y4426D01*
G01X18500Y4450D01*
G01X18544Y4494D01*
G01X18568Y4563D01*
G01X18568Y4609D01*
G01X18544Y4676D01*
G01X18500Y4723D01*
G01X18455Y4744D01*
G01X18385Y4744D01*
G01X18718Y4744D02*
G01X18718Y4426D01*
G01X18718Y4655D02*
G01X18785Y4723D01*
G01X18831Y4744D01*
G01X18900Y4744D01*
G01X18944Y4723D01*
G01X18968Y4655D01*
G01X18968Y4426D01*
G01X19164Y4973D02*
G01X19164Y4836D01*
G01X19335Y4905D02*
G01X19335Y4517D01*
G01X19359Y4450D01*
G01X19405Y4426D01*
G01X19450Y4426D01*
G01X19268Y4744D02*
G01X19427Y4744D01*
G01X19950Y4744D02*
G01X19950Y4517D01*
G01X19972Y4450D01*
G01X20018Y4426D01*
G01X20085Y4426D01*
G01X20131Y4450D01*
G01X20200Y4517D01*
G01X20200Y4744D02*
G01X20200Y4426D01*
G01X20600Y4676D02*
G01X20577Y4723D01*
G01X20509Y4744D01*
G01X20440Y4744D01*
G01X20372Y4723D01*
G01X20350Y4676D01*
G01X20372Y4632D01*
G01X20418Y4609D01*
G01X20531Y4586D01*
G01X20577Y4563D01*
G01X20600Y4517D01*
G01X20600Y4494D01*
G01X20577Y4450D01*
G01X20509Y4426D01*
G01X20440Y4426D01*
G01X20372Y4450D01*
G01X20350Y4494D01*
G01X20750Y4609D02*
G01X21022Y4609D01*
G01X21022Y4655D01*
G01X21000Y4700D01*
G01X20977Y4723D01*
G01X20931Y4744D01*
G01X20864Y4744D01*
G01X20818Y4723D01*
G01X20772Y4676D01*
G01X20750Y4609D01*
G01X20750Y4563D01*
G01X20772Y4494D01*
G01X20818Y4450D01*
G01X20864Y4426D01*
G01X20931Y4426D01*
G01X20977Y4450D01*
G01X21022Y4494D01*
G01X17772Y4155D02*
G01X17544Y4155D01*
G01X17522Y3950D01*
G01X17544Y3973D01*
G01X17614Y3994D01*
G01X17681Y3994D01*
G01X17750Y3973D01*
G01X17794Y3926D01*
G01X17818Y3859D01*
G01X17818Y3813D01*
G01X17794Y3744D01*
G01X17750Y3700D01*
G01X17681Y3676D01*
G01X17614Y3676D01*
G01X17544Y3700D01*
G01X17522Y3723D01*
G01X17500Y3767D01*
G01X17968Y4155D02*
G01X18150Y3676D01*
G01X18331Y4155D02*
G01X18150Y3676D01*
G01X18922Y4155D02*
G01X18944Y4132D01*
G01X18968Y4155D01*
G01X18944Y4176D01*
G01X18922Y4155D01*
G01X18944Y3994D02*
G01X18944Y3609D01*
G01X18922Y3540D01*
G01X18877Y3517D01*
G01X18831Y3517D01*
G01X19118Y3994D02*
G01X19118Y3767D01*
G01X19140Y3700D01*
G01X19185Y3676D01*
G01X19255Y3676D01*
G01X19300Y3700D01*
G01X19368Y3767D01*
G01X19368Y3994D02*
G01X19368Y3676D01*
G01X19518Y3994D02*
G01X19518Y3676D01*
G01X19518Y3905D02*
G01X19585Y3973D01*
G01X19631Y3994D01*
G01X19700Y3994D01*
G01X19744Y3973D01*
G01X19768Y3905D01*
G01X19768Y3676D01*
G01X19768Y3905D02*
G01X19835Y3973D01*
G01X19881Y3994D01*
G01X19950Y3994D01*
G01X19994Y3973D01*
G01X20018Y3905D01*
G01X20018Y3676D01*
G01X20168Y3994D02*
G01X20168Y3517D01*
G01X20168Y3926D02*
G01X20214Y3973D01*
G01X20259Y3994D01*
G01X20327Y3994D01*
G01X20372Y3973D01*
G01X20418Y3926D01*
G01X20440Y3859D01*
G01X20440Y3813D01*
G01X20418Y3744D01*
G01X20372Y3700D01*
G01X20327Y3676D01*
G01X20259Y3676D01*
G01X20214Y3700D01*
G01X20168Y3744D01*
G01X20590Y3859D02*
G01X20864Y3859D01*
G01X20864Y3905D01*
G01X20840Y3950D01*
G01X20818Y3973D01*
G01X20772Y3994D01*
G01X20705Y3994D01*
G01X20659Y3973D01*
G01X20614Y3926D01*
G01X20590Y3859D01*
G01X20590Y3813D01*
G01X20614Y3744D01*
G01X20659Y3700D01*
G01X20705Y3676D01*
G01X20772Y3676D01*
G01X20818Y3700D01*
G01X20864Y3744D01*
G01X21014Y3994D02*
G01X21014Y3676D01*
G01X21014Y3859D02*
G01X21035Y3926D01*
G01X21081Y3973D01*
G01X21127Y3994D01*
G01X21194Y3994D01*
G01X21368Y4155D02*
G01X21368Y3836D01*
G01X21368Y3723D02*
G01X21344Y3700D01*
G01X21368Y3676D01*
G01X21390Y3700D01*
G01X21368Y3723D01*
G01X21564Y4155D02*
G01X21564Y3836D01*
G01X21564Y3723D02*
G01X21540Y3700D01*
G01X21564Y3676D01*
G01X21585Y3700D01*
G01X21564Y3723D01*
G54D24*
G01X18700Y19655D02*
G01X18700Y19082D01*
G01X18700Y19655D02*
G01X19055Y19655D01*
G01X18700Y19382D02*
G01X18918Y19382D01*
G01X19371Y19465D02*
G01X19315Y19436D01*
G01X19261Y19382D01*
G01X19235Y19301D01*
G01X19235Y19246D01*
G01X19261Y19165D01*
G01X19315Y19109D01*
G01X19371Y19082D01*
G01X19452Y19082D01*
G01X19506Y19109D01*
G01X19561Y19165D01*
G01X19589Y19246D01*
G01X19589Y19301D01*
G01X19561Y19382D01*
G01X19506Y19436D01*
G01X19452Y19465D01*
G01X19371Y19465D01*
G01X19768Y19465D02*
G01X19768Y19082D01*
G01X19768Y19301D02*
G01X19796Y19382D01*
G01X19851Y19436D01*
G01X19905Y19465D01*
G01X19986Y19465D01*
G01X20914Y19655D02*
G01X20642Y19655D01*
G01X20614Y19409D01*
G01X20642Y19436D01*
G01X20723Y19465D01*
G01X20805Y19465D01*
G01X20886Y19436D01*
G01X20942Y19382D01*
G01X20968Y19301D01*
G01X20968Y19246D01*
G01X20942Y19165D01*
G01X20886Y19109D01*
G01X20805Y19082D01*
G01X20723Y19082D01*
G01X20642Y19109D01*
G01X20614Y19136D01*
G01X20586Y19192D01*
G01X21148Y19655D02*
G01X21367Y19082D01*
G01X21585Y19655D02*
G01X21367Y19082D01*
G01X22513Y19465D02*
G01X22513Y19082D01*
G01X22513Y19382D02*
G01X22457Y19436D01*
G01X22403Y19465D01*
G01X22322Y19465D01*
G01X22267Y19436D01*
G01X22213Y19382D01*
G01X22185Y19301D01*
G01X22185Y19246D01*
G01X22213Y19165D01*
G01X22267Y19109D01*
G01X22322Y19082D01*
G01X22403Y19082D01*
G01X22457Y19109D01*
G01X22513Y19165D01*
G01X22693Y19465D02*
G01X22693Y19082D01*
G01X22693Y19355D02*
G01X22775Y19436D01*
G01X22828Y19465D01*
G01X22910Y19465D01*
G01X22964Y19436D01*
G01X22993Y19355D01*
G01X22993Y19082D01*
G01X23500Y19655D02*
G01X23500Y19082D01*
G01X23500Y19382D02*
G01X23444Y19436D01*
G01X23390Y19465D01*
G01X23309Y19465D01*
G01X23255Y19436D01*
G01X23200Y19382D01*
G01X23172Y19301D01*
G01X23172Y19246D01*
G01X23200Y19165D01*
G01X23255Y19109D01*
G01X23309Y19082D01*
G01X23390Y19082D01*
G01X23444Y19109D01*
G01X23500Y19165D01*
G01X24100Y19546D02*
G01X24155Y19573D01*
G01X24235Y19655D01*
G01X24235Y19082D01*
G01X24443Y19519D02*
G01X24443Y19546D01*
G01X24471Y19601D01*
G01X24497Y19628D01*
G01X24552Y19655D01*
G01X24661Y19655D01*
G01X24715Y19628D01*
G01X24743Y19601D01*
G01X24771Y19546D01*
G01X24771Y19492D01*
G01X24743Y19436D01*
G01X24689Y19355D01*
G01X24415Y19082D01*
G01X24797Y19082D01*
G01X24977Y19655D02*
G01X25196Y19082D01*
G01X25414Y19655D02*
G01X25196Y19082D01*
G01X26014Y19655D02*
G01X26014Y19082D01*
G01X26014Y19655D02*
G01X26260Y19655D01*
G01X26342Y19628D01*
G01X26368Y19601D01*
G01X26396Y19546D01*
G01X26396Y19465D01*
G01X26368Y19409D01*
G01X26342Y19382D01*
G01X26260Y19355D01*
G01X26014Y19355D01*
G01X26985Y19519D02*
G01X26957Y19573D01*
G01X26903Y19628D01*
G01X26848Y19655D01*
G01X26739Y19655D01*
G01X26685Y19628D01*
G01X26631Y19573D01*
G01X26603Y19519D01*
G01X26576Y19436D01*
G01X26576Y19301D01*
G01X26603Y19219D01*
G01X26631Y19165D01*
G01X26685Y19109D01*
G01X26739Y19082D01*
G01X26848Y19082D01*
G01X26903Y19109D01*
G01X26957Y19165D01*
G01X26985Y19219D01*
G01X27803Y19655D02*
G01X27748Y19655D01*
G01X27694Y19628D01*
G01X27667Y19546D01*
G01X27667Y19082D01*
G01X27585Y19465D02*
G01X27776Y19465D01*
G01X28310Y19465D02*
G01X28310Y19082D01*
G01X28310Y19382D02*
G01X28256Y19436D01*
G01X28202Y19465D01*
G01X28119Y19465D01*
G01X28064Y19436D01*
G01X28010Y19382D01*
G01X27984Y19301D01*
G01X27984Y19246D01*
G01X28010Y19165D01*
G01X28064Y19109D01*
G01X28119Y19082D01*
G01X28202Y19082D01*
G01X28256Y19109D01*
G01X28310Y19165D01*
G01X28490Y19465D02*
G01X28490Y19082D01*
G01X28490Y19355D02*
G01X28572Y19436D01*
G01X28627Y19465D01*
G01X28709Y19465D01*
G01X28764Y19436D01*
G01X28790Y19355D01*
G01X28790Y19082D01*

%LPD*%
G36*
G01X11623Y10795D02*
G01X11614Y10796D01*
G01X11606Y10795D01*
G01X11597Y10790D01*
G01X11588Y10782D01*
G01X11578Y10769D01*
G01X11564Y10746D01*
G01X11549Y10723D01*
G01X11535Y10700D01*
G01X11522Y10678D01*
G01X11535Y10667D01*
G01X11575Y10701D01*
G01X11594Y10719D01*
G01X11614Y10736D01*
G01X11626Y10748D01*
G01X11634Y10757D01*
G01X11638Y10765D01*
G01X11639Y10773D01*
G01X11636Y10784D01*
G01X11631Y10791D01*
G01X11623Y10795D01*
G37*

%LPD*%
G36*
G01X11203Y10740D02*
G01X11018Y10740D01*
G01X11018Y10717D01*
G01X11080Y10709D01*
G01X11080Y10623D01*
G01X11081Y10601D01*
G01X11081Y10438D01*
G01X11080Y10416D01*
G01X11080Y10328D01*
G01X11018Y10323D01*
G01X11018Y10300D01*
G01X11344Y10300D01*
G01X11348Y10423D01*
G01X11314Y10423D01*
G01X11293Y10328D01*
G01X11142Y10328D01*
G01X11141Y10349D01*
G01X11141Y10413D01*
G01X11140Y10434D01*
G01X11140Y10601D01*
G01X11141Y10623D01*
G01X11141Y10688D01*
G01X11142Y10709D01*
G01X11203Y10717D01*
G01X11203Y10740D01*
G37*

%LPD*%
G36*
G01X8494Y10740D02*
G01X8375Y10740D01*
G01X8375Y10717D01*
G01X8435Y10709D01*
G01X8435Y10330D01*
G01X8375Y10323D01*
G01X8375Y10300D01*
G01X8522Y10300D01*
G01X8522Y10323D01*
G01X8464Y10330D01*
G01X8464Y10553D01*
G01X8463Y10587D01*
G01X8462Y10631D01*
G01X8461Y10676D01*
G01X8614Y10300D01*
G01X8643Y10300D01*
G01X8792Y10678D01*
G01X8790Y10501D01*
G01X8790Y10350D01*
G01X8789Y10328D01*
G01X8732Y10323D01*
G01X8732Y10300D01*
G01X8911Y10300D01*
G01X8911Y10323D01*
G01X8851Y10328D01*
G01X8850Y10351D01*
G01X8850Y10688D01*
G01X8851Y10709D01*
G01X8911Y10717D01*
G01X8911Y10740D01*
G01X8785Y10740D01*
G01X8643Y10375D01*
G01X8494Y10740D01*
G37*

%LPD*%
G36*
G01X11568Y10618D02*
G01X11543Y10619D01*
G01X11519Y10618D01*
G01X11497Y10614D01*
G01X11477Y10607D01*
G01X11459Y10598D01*
G01X11444Y10586D01*
G01X11432Y10573D01*
G01X11423Y10557D01*
G01X11417Y10538D01*
G01X11419Y10528D01*
G01X11426Y10520D01*
G01X11435Y10515D01*
G01X11447Y10513D01*
G01X11457Y10515D01*
G01X11467Y10521D01*
G01X11474Y10531D01*
G01X11480Y10544D01*
G01X11492Y10590D01*
G01X11502Y10592D01*
G01X11520Y10594D01*
G01X11528Y10594D01*
G01X11557Y10591D01*
G01X11577Y10578D01*
G01X11588Y10553D01*
G01X11592Y10513D01*
G01X11592Y10492D01*
G01X11572Y10488D01*
G01X11552Y10482D01*
G01X11534Y10477D01*
G01X11517Y10471D01*
G01X11487Y10460D01*
G01X11463Y10448D01*
G01X11444Y10437D01*
G01X11430Y10425D01*
G01X11419Y10413D01*
G01X11413Y10400D01*
G01X11409Y10386D01*
G01X11407Y10371D01*
G01X11414Y10337D01*
G01X11433Y10312D01*
G01X11461Y10296D01*
G01X11494Y10292D01*
G01X11522Y10295D01*
G01X11546Y10304D01*
G01X11568Y10321D01*
G01X11593Y10344D01*
G01X11600Y10323D01*
G01X11612Y10306D01*
G01X11630Y10296D01*
G01X11652Y10292D01*
G01X11668Y10294D01*
G01X11683Y10300D01*
G01X11697Y10310D01*
G01X11709Y10326D01*
G01X11697Y10338D01*
G01X11690Y10332D01*
G01X11684Y10327D01*
G01X11677Y10323D01*
G01X11669Y10323D01*
G01X11660Y10325D01*
G01X11652Y10332D01*
G01X11647Y10345D01*
G01X11646Y10365D01*
G01X11646Y10507D01*
G01X11644Y10536D01*
G01X11639Y10559D01*
G01X11631Y10578D01*
G01X11620Y10594D01*
G01X11606Y10605D01*
G01X11589Y10613D01*
G01X11568Y10618D01*
G37*

%LPC*%
G36*
G01X11592Y10367D02*
G01X11592Y10473D01*
G01X11574Y10467D01*
G01X11558Y10462D01*
G01X11531Y10453D01*
G01X11497Y10435D01*
G01X11476Y10417D01*
G01X11466Y10399D01*
G01X11464Y10380D01*
G01X11468Y10358D01*
G01X11479Y10342D01*
G01X11496Y10332D01*
G01X11517Y10330D01*
G01X11533Y10332D01*
G01X11550Y10338D01*
G01X11568Y10350D01*
G01X11592Y10367D01*
G37*

%LPD*%
G36*
G01X10251Y10780D02*
G01X10243Y10786D01*
G01X10143Y10757D01*
G01X10143Y10738D01*
G01X10197Y10732D01*
G01X10197Y10438D01*
G01X10196Y10412D01*
G01X10196Y10328D01*
G01X10146Y10319D01*
G01X10146Y10300D01*
G01X10243Y10292D01*
G01X10250Y10338D01*
G01X10272Y10315D01*
G01X10295Y10301D01*
G01X10318Y10294D01*
G01X10342Y10292D01*
G01X10361Y10293D01*
G01X10379Y10297D01*
G01X10396Y10304D01*
G01X10411Y10313D01*
G01X10426Y10324D01*
G01X10438Y10338D01*
G01X10449Y10353D01*
G01X10458Y10371D01*
G01X10466Y10391D01*
G01X10471Y10412D01*
G01X10474Y10434D01*
G01X10476Y10459D01*
G01X10474Y10483D01*
G01X10471Y10505D01*
G01X10466Y10526D01*
G01X10459Y10545D01*
G01X10450Y10562D01*
G01X10440Y10577D01*
G01X10428Y10590D01*
G01X10414Y10600D01*
G01X10400Y10609D01*
G01X10385Y10615D01*
G01X10368Y10618D01*
G01X10351Y10619D01*
G01X10324Y10617D01*
G01X10298Y10608D01*
G01X10273Y10592D01*
G01X10250Y10571D01*
G01X10250Y10688D01*
G01X10251Y10780D01*
G37*

%LPC*%
G36*
G01X10350Y10584D02*
G01X10331Y10586D01*
G01X10315Y10585D01*
G01X10297Y10580D01*
G01X10276Y10569D01*
G01X10251Y10550D01*
G01X10251Y10361D01*
G01X10271Y10344D01*
G01X10291Y10333D01*
G01X10310Y10326D01*
G01X10330Y10325D01*
G01X10347Y10326D01*
G01X10363Y10332D01*
G01X10378Y10341D01*
G01X10392Y10355D01*
G01X10403Y10372D01*
G01X10411Y10394D01*
G01X10417Y10421D01*
G01X10418Y10453D01*
G01X10417Y10484D01*
G01X10412Y10511D01*
G01X10405Y10534D01*
G01X10394Y10553D01*
G01X10381Y10568D01*
G01X10367Y10578D01*
G01X10350Y10584D01*
G37*

%LPD*%
G36*
G01X9843Y10617D02*
G01X9818Y10619D01*
G01X9797Y10618D01*
G01X9778Y10614D01*
G01X9760Y10608D01*
G01X9743Y10599D01*
G01X9727Y10588D01*
G01X9712Y10574D01*
G01X9699Y10559D01*
G01X9688Y10542D01*
G01X9680Y10522D01*
G01X9673Y10501D01*
G01X9669Y10478D01*
G01X9668Y10453D01*
G01X9669Y10429D01*
G01X9672Y10406D01*
G01X9678Y10385D01*
G01X9686Y10366D01*
G01X9697Y10349D01*
G01X9709Y10334D01*
G01X9722Y10321D01*
G01X9738Y10311D01*
G01X9755Y10302D01*
G01X9774Y10296D01*
G01X9794Y10293D01*
G01X9815Y10292D01*
G01X9836Y10293D01*
G01X9856Y10297D01*
G01X9874Y10303D01*
G01X9890Y10311D01*
G01X9905Y10322D01*
G01X9918Y10335D01*
G01X9930Y10350D01*
G01X9939Y10367D01*
G01X9927Y10376D01*
G01X9908Y10356D01*
G01X9888Y10341D01*
G01X9863Y10331D01*
G01X9834Y10328D01*
G01X9810Y10330D01*
G01X9790Y10336D01*
G01X9771Y10346D01*
G01X9755Y10360D01*
G01X9743Y10379D01*
G01X9733Y10401D01*
G01X9727Y10428D01*
G01X9725Y10459D01*
G01X9935Y10457D01*
G01X9938Y10465D01*
G01X9939Y10474D01*
G01X9940Y10484D01*
G01X9940Y10494D01*
G01X9938Y10522D01*
G01X9931Y10546D01*
G01X9920Y10568D01*
G01X9906Y10586D01*
G01X9888Y10600D01*
G01X9867Y10611D01*
G01X9843Y10617D01*
G37*

%LPC*%
G36*
G01X9844Y10588D02*
G01X9814Y10594D01*
G01X9800Y10593D01*
G01X9785Y10588D01*
G01X9770Y10580D01*
G01X9757Y10568D01*
G01X9746Y10553D01*
G01X9736Y10534D01*
G01X9730Y10511D01*
G01X9726Y10484D01*
G01X9852Y10482D01*
G01X9869Y10484D01*
G01X9880Y10492D01*
G01X9886Y10503D01*
G01X9888Y10519D01*
G01X9882Y10548D01*
G01X9867Y10572D01*
G01X9844Y10588D01*
G37*

%LPD*%
G36*
G01X9575Y10780D02*
G01X9567Y10786D01*
G01X9464Y10757D01*
G01X9464Y10738D01*
G01X9521Y10734D01*
G01X9521Y10578D01*
G01X9500Y10598D01*
G01X9478Y10611D01*
G01X9456Y10617D01*
G01X9434Y10619D01*
G01X9414Y10618D01*
G01X9395Y10614D01*
G01X9377Y10608D01*
G01X9361Y10599D01*
G01X9346Y10588D01*
G01X9333Y10574D01*
G01X9322Y10559D01*
G01X9312Y10541D01*
G01X9304Y10522D01*
G01X9298Y10500D01*
G01X9295Y10477D01*
G01X9293Y10453D01*
G01X9295Y10429D01*
G01X9298Y10407D01*
G01X9303Y10387D01*
G01X9310Y10368D01*
G01X9320Y10351D01*
G01X9331Y10336D01*
G01X9343Y10323D01*
G01X9357Y10312D01*
G01X9373Y10303D01*
G01X9390Y10297D01*
G01X9409Y10293D01*
G01X9428Y10292D01*
G01X9456Y10295D01*
G01X9481Y10304D01*
G01X9502Y10318D01*
G01X9521Y10338D01*
G01X9525Y10292D01*
G01X9627Y10300D01*
G01X9627Y10319D01*
G01X9572Y10326D01*
G01X9572Y10688D01*
G01X9575Y10780D01*
G37*

%LPC*%
G36*
G01X9461Y10585D02*
G01X9444Y10586D01*
G01X9426Y10585D01*
G01X9409Y10579D01*
G01X9393Y10569D01*
G01X9379Y10556D01*
G01X9367Y10538D01*
G01X9358Y10515D01*
G01X9352Y10487D01*
G01X9351Y10455D01*
G01X9352Y10423D01*
G01X9357Y10396D01*
G01X9366Y10373D01*
G01X9377Y10355D01*
G01X9391Y10342D01*
G01X9407Y10332D01*
G01X9424Y10326D01*
G01X9443Y10325D01*
G01X9464Y10326D01*
G01X9482Y10332D01*
G01X9500Y10344D01*
G01X9518Y10361D01*
G01X9518Y10553D01*
G01X9498Y10569D01*
G01X9479Y10579D01*
G01X9461Y10585D01*
G37*

%LPD*%
G36*
G01X9120Y10618D02*
G01X9096Y10619D01*
G01X9071Y10618D01*
G01X9048Y10614D01*
G01X9028Y10607D01*
G01X9011Y10598D01*
G01X8996Y10586D01*
G01X8984Y10573D01*
G01X8974Y10557D01*
G01X8968Y10538D01*
G01X8971Y10528D01*
G01X8977Y10520D01*
G01X8985Y10515D01*
G01X8997Y10513D01*
G01X9009Y10515D01*
G01X9018Y10521D01*
G01X9026Y10531D01*
G01X9031Y10544D01*
G01X9043Y10590D01*
G01X9053Y10592D01*
G01X9062Y10593D01*
G01X9072Y10594D01*
G01X9081Y10594D01*
G01X9109Y10591D01*
G01X9128Y10578D01*
G01X9140Y10553D01*
G01X9143Y10513D01*
G01X9143Y10492D01*
G01X9123Y10488D01*
G01X9103Y10482D01*
G01X9085Y10477D01*
G01X9068Y10471D01*
G01X9038Y10460D01*
G01X9014Y10448D01*
G01X8996Y10437D01*
G01X8981Y10425D01*
G01X8971Y10413D01*
G01X8964Y10400D01*
G01X8961Y10386D01*
G01X8960Y10371D01*
G01X8966Y10337D01*
G01X8985Y10312D01*
G01X9013Y10296D01*
G01X9047Y10292D01*
G01X9073Y10295D01*
G01X9097Y10304D01*
G01X9119Y10321D01*
G01X9144Y10344D01*
G01X9151Y10323D01*
G01X9164Y10306D01*
G01X9181Y10296D01*
G01X9203Y10292D01*
G01X9220Y10294D01*
G01X9235Y10300D01*
G01X9248Y10310D01*
G01X9260Y10326D01*
G01X9247Y10338D01*
G01X9242Y10332D01*
G01X9236Y10327D01*
G01X9229Y10323D01*
G01X9222Y10323D01*
G01X9211Y10325D01*
G01X9204Y10332D01*
G01X9199Y10345D01*
G01X9197Y10365D01*
G01X9197Y10507D01*
G01X9196Y10536D01*
G01X9191Y10559D01*
G01X9184Y10578D01*
G01X9172Y10594D01*
G01X9158Y10605D01*
G01X9140Y10613D01*
G01X9120Y10618D01*
G37*

%LPC*%
G36*
G01X9143Y10367D02*
G01X9143Y10473D01*
G01X9126Y10467D01*
G01X9110Y10462D01*
G01X9095Y10457D01*
G01X9082Y10453D01*
G01X9048Y10435D01*
G01X9027Y10417D01*
G01X9017Y10399D01*
G01X9014Y10380D01*
G01X9018Y10358D01*
G01X9030Y10342D01*
G01X9047Y10332D01*
G01X9068Y10330D01*
G01X9085Y10332D01*
G01X9101Y10338D01*
G01X9119Y10350D01*
G01X9143Y10367D01*
G37*

%LPD*%
G36*
G01X11861Y10611D02*
G01X11706Y10611D01*
G01X11706Y10590D01*
G01X11743Y10586D01*
G01X11865Y10280D01*
G01X11863Y10273D01*
G01X11850Y10244D01*
G01X11836Y10218D01*
G01X11819Y10195D01*
G01X11798Y10176D01*
G01X11794Y10180D01*
G01X11782Y10191D01*
G01X11771Y10198D01*
G01X11759Y10203D01*
G01X11747Y10205D01*
G01X11732Y10203D01*
G01X11719Y10198D01*
G01X11710Y10189D01*
G01X11705Y10178D01*
G01X11709Y10160D01*
G01X11722Y10147D01*
G01X11740Y10138D01*
G01X11763Y10136D01*
G01X11780Y10138D01*
G01X11797Y10144D01*
G01X11814Y10156D01*
G01X11831Y10172D01*
G01X11847Y10194D01*
G01X11863Y10221D01*
G01X11879Y10253D01*
G01X11894Y10292D01*
G01X12006Y10584D01*
G01X12042Y10590D01*
G01X12042Y10611D01*
G01X11914Y10611D01*
G01X11914Y10590D01*
G01X11975Y10584D01*
G01X11892Y10351D01*
G01X11805Y10584D01*
G01X11861Y10590D01*
G01X11861Y10611D01*
G37*

%LPD*%
G36*
G01X10656Y10611D02*
G01X10500Y10611D01*
G01X10500Y10590D01*
G01X10538Y10586D01*
G01X10660Y10280D01*
G01X10656Y10273D01*
G01X10644Y10244D01*
G01X10630Y10218D01*
G01X10613Y10195D01*
G01X10593Y10176D01*
G01X10589Y10180D01*
G01X10576Y10191D01*
G01X10564Y10198D01*
G01X10553Y10203D01*
G01X10540Y10205D01*
G01X10526Y10203D01*
G01X10514Y10198D01*
G01X10504Y10189D01*
G01X10498Y10178D01*
G01X10503Y10160D01*
G01X10516Y10147D01*
G01X10534Y10138D01*
G01X10556Y10136D01*
G01X10574Y10138D01*
G01X10592Y10144D01*
G01X10608Y10156D01*
G01X10625Y10172D01*
G01X10641Y10194D01*
G01X10657Y10221D01*
G01X10673Y10253D01*
G01X10689Y10292D01*
G01X10800Y10584D01*
G01X10835Y10590D01*
G01X10835Y10611D01*
G01X10709Y10611D01*
G01X10709Y10590D01*
G01X10768Y10584D01*
G01X10685Y10351D01*
G01X10598Y10584D01*
G01X10656Y10590D01*
G01X10656Y10611D01*
G37*

%LPD*%

%LPD*%
G36*
G01X11441Y9996D02*
G01X11411Y9998D01*
G01X11388Y9997D01*
G01X11365Y9992D01*
G01X11343Y9984D01*
G01X11325Y9974D01*
G01X11308Y9960D01*
G01X11295Y9943D01*
G01X11285Y9923D01*
G01X11280Y9900D01*
G01X11285Y9891D01*
G01X11293Y9884D01*
G01X11302Y9880D01*
G01X11311Y9878D01*
G01X11323Y9881D01*
G01X11333Y9888D01*
G01X11341Y9901D01*
G01X11347Y9921D01*
G01X11360Y9969D01*
G01X11371Y9970D01*
G01X11380Y9972D01*
G01X11388Y9972D01*
G01X11396Y9973D01*
G01X11413Y9971D01*
G01X11429Y9966D01*
G01X11443Y9958D01*
G01X11455Y9947D01*
G01X11464Y9933D01*
G01X11471Y9917D01*
G01X11475Y9899D01*
G01X11477Y9878D01*
G01X11475Y9859D01*
G01X11471Y9840D01*
G01X11464Y9819D01*
G01X11453Y9799D01*
G01X11440Y9777D01*
G01X11424Y9754D01*
G01X11405Y9730D01*
G01X11382Y9703D01*
G01X11371Y9691D01*
G01X11360Y9678D01*
G01X11348Y9664D01*
G01X11335Y9650D01*
G01X11296Y9605D01*
G01X11282Y9590D01*
G01X11282Y9550D01*
G01X11552Y9550D01*
G01X11552Y9601D01*
G01X11325Y9601D01*
G01X11347Y9623D01*
G01X11368Y9645D01*
G01X11387Y9665D01*
G01X11402Y9680D01*
G01X11425Y9705D01*
G01X11446Y9727D01*
G01X11464Y9747D01*
G01X11480Y9765D01*
G01X11493Y9782D01*
G01X11505Y9798D01*
G01X11514Y9813D01*
G01X11521Y9827D01*
G01X11527Y9840D01*
G01X11531Y9854D01*
G01X11533Y9867D01*
G01X11534Y9882D01*
G01X11532Y9906D01*
G01X11526Y9929D01*
G01X11517Y9949D01*
G01X11504Y9966D01*
G01X11488Y9980D01*
G01X11467Y9990D01*
G01X11441Y9996D01*
G37*

%LPD*%
G36*
G01X11112Y9996D02*
G01X11082Y9998D01*
G01X11058Y9997D01*
G01X11035Y9992D01*
G01X11014Y9984D01*
G01X10995Y9974D01*
G01X10979Y9960D01*
G01X10966Y9943D01*
G01X10956Y9923D01*
G01X10951Y9900D01*
G01X10956Y9891D01*
G01X10963Y9884D01*
G01X10972Y9880D01*
G01X10981Y9878D01*
G01X10993Y9881D01*
G01X11003Y9888D01*
G01X11011Y9901D01*
G01X11018Y9921D01*
G01X11031Y9969D01*
G01X11041Y9970D01*
G01X11050Y9972D01*
G01X11059Y9972D01*
G01X11067Y9973D01*
G01X11084Y9971D01*
G01X11100Y9966D01*
G01X11113Y9958D01*
G01X11125Y9947D01*
G01X11134Y9933D01*
G01X11141Y9917D01*
G01X11145Y9899D01*
G01X11147Y9878D01*
G01X11145Y9859D01*
G01X11141Y9840D01*
G01X11134Y9819D01*
G01X11123Y9799D01*
G01X11110Y9777D01*
G01X11094Y9754D01*
G01X11075Y9730D01*
G01X11052Y9703D01*
G01X11041Y9691D01*
G01X11030Y9678D01*
G01X11006Y9650D01*
G01X10967Y9605D01*
G01X10953Y9590D01*
G01X10953Y9550D01*
G01X11223Y9550D01*
G01X11223Y9601D01*
G01X10996Y9601D01*
G01X11018Y9623D01*
G01X11039Y9645D01*
G01X11057Y9665D01*
G01X11072Y9680D01*
G01X11096Y9705D01*
G01X11116Y9727D01*
G01X11135Y9747D01*
G01X11150Y9765D01*
G01X11164Y9782D01*
G01X11175Y9798D01*
G01X11185Y9813D01*
G01X11192Y9827D01*
G01X11198Y9840D01*
G01X11202Y9854D01*
G01X11204Y9867D01*
G01X11205Y9882D01*
G01X11203Y9906D01*
G01X11197Y9929D01*
G01X11188Y9949D01*
G01X11175Y9966D01*
G01X11158Y9980D01*
G01X11137Y9990D01*
G01X11112Y9996D01*
G37*

%LPD*%
G36*
G01X10585Y9996D02*
G01X10556Y9998D01*
G01X10531Y9997D01*
G01X10508Y9992D01*
G01X10487Y9984D01*
G01X10468Y9974D01*
G01X10452Y9960D01*
G01X10439Y9943D01*
G01X10429Y9923D01*
G01X10423Y9900D01*
G01X10429Y9891D01*
G01X10436Y9884D01*
G01X10446Y9880D01*
G01X10456Y9878D01*
G01X10467Y9881D01*
G01X10477Y9888D01*
G01X10485Y9901D01*
G01X10492Y9921D01*
G01X10505Y9969D01*
G01X10515Y9970D01*
G01X10524Y9972D01*
G01X10532Y9972D01*
G01X10539Y9973D01*
G01X10557Y9971D01*
G01X10573Y9966D01*
G01X10587Y9958D01*
G01X10598Y9947D01*
G01X10608Y9933D01*
G01X10615Y9917D01*
G01X10619Y9899D01*
G01X10621Y9878D01*
G01X10619Y9859D01*
G01X10615Y9840D01*
G01X10607Y9819D01*
G01X10597Y9799D01*
G01X10584Y9777D01*
G01X10568Y9754D01*
G01X10548Y9730D01*
G01X10526Y9703D01*
G01X10515Y9691D01*
G01X10503Y9678D01*
G01X10479Y9650D01*
G01X10427Y9590D01*
G01X10427Y9550D01*
G01X10697Y9550D01*
G01X10697Y9601D01*
G01X10468Y9601D01*
G01X10491Y9623D01*
G01X10512Y9645D01*
G01X10531Y9665D01*
G01X10546Y9680D01*
G01X10569Y9705D01*
G01X10590Y9727D01*
G01X10608Y9747D01*
G01X10624Y9765D01*
G01X10637Y9782D01*
G01X10649Y9798D01*
G01X10658Y9813D01*
G01X10665Y9827D01*
G01X10671Y9840D01*
G01X10675Y9854D01*
G01X10677Y9867D01*
G01X10677Y9882D01*
G01X10676Y9906D01*
G01X10670Y9929D01*
G01X10661Y9949D01*
G01X10648Y9966D01*
G01X10631Y9980D01*
G01X10610Y9990D01*
G01X10585Y9996D01*
G37*

%LPD*%
G36*
G01X9399Y9996D02*
G01X9369Y9998D01*
G01X9346Y9997D01*
G01X9323Y9992D01*
G01X9302Y9984D01*
G01X9282Y9974D01*
G01X9266Y9960D01*
G01X9253Y9943D01*
G01X9243Y9923D01*
G01X9238Y9900D01*
G01X9243Y9891D01*
G01X9251Y9884D01*
G01X9260Y9880D01*
G01X9269Y9878D01*
G01X9281Y9881D01*
G01X9291Y9888D01*
G01X9299Y9901D01*
G01X9306Y9921D01*
G01X9318Y9969D01*
G01X9329Y9970D01*
G01X9338Y9972D01*
G01X9347Y9972D01*
G01X9355Y9973D01*
G01X9372Y9971D01*
G01X9388Y9966D01*
G01X9401Y9958D01*
G01X9413Y9947D01*
G01X9422Y9933D01*
G01X9429Y9917D01*
G01X9433Y9899D01*
G01X9435Y9878D01*
G01X9433Y9859D01*
G01X9429Y9840D01*
G01X9422Y9819D01*
G01X9411Y9799D01*
G01X9398Y9777D01*
G01X9382Y9754D01*
G01X9363Y9730D01*
G01X9340Y9703D01*
G01X9329Y9691D01*
G01X9318Y9678D01*
G01X9306Y9664D01*
G01X9293Y9650D01*
G01X9254Y9605D01*
G01X9240Y9590D01*
G01X9240Y9550D01*
G01X9510Y9550D01*
G01X9510Y9601D01*
G01X9282Y9601D01*
G01X9305Y9623D01*
G01X9326Y9645D01*
G01X9345Y9665D01*
G01X9360Y9680D01*
G01X9384Y9705D01*
G01X9404Y9727D01*
G01X9422Y9747D01*
G01X9438Y9765D01*
G01X9452Y9782D01*
G01X9463Y9798D01*
G01X9473Y9813D01*
G01X9480Y9827D01*
G01X9486Y9840D01*
G01X9489Y9854D01*
G01X9492Y9867D01*
G01X9493Y9882D01*
G01X9491Y9906D01*
G01X9485Y9929D01*
G01X9476Y9949D01*
G01X9463Y9966D01*
G01X9446Y9980D01*
G01X9425Y9990D01*
G01X9399Y9996D01*
G37*

%LPD*%
G36*
G01X8740Y9996D02*
G01X8710Y9998D01*
G01X8686Y9997D01*
G01X8664Y9992D01*
G01X8643Y9984D01*
G01X8623Y9974D01*
G01X8607Y9960D01*
G01X8594Y9943D01*
G01X8584Y9923D01*
G01X8578Y9900D01*
G01X8585Y9891D01*
G01X8592Y9884D01*
G01X8601Y9880D01*
G01X8610Y9878D01*
G01X8622Y9881D01*
G01X8632Y9888D01*
G01X8640Y9901D01*
G01X8647Y9921D01*
G01X8660Y9969D01*
G01X8670Y9970D01*
G01X8679Y9972D01*
G01X8688Y9972D01*
G01X8696Y9973D01*
G01X8713Y9971D01*
G01X8729Y9966D01*
G01X8742Y9958D01*
G01X8754Y9947D01*
G01X8763Y9933D01*
G01X8770Y9917D01*
G01X8774Y9899D01*
G01X8776Y9878D01*
G01X8774Y9859D01*
G01X8770Y9840D01*
G01X8763Y9819D01*
G01X8752Y9799D01*
G01X8739Y9777D01*
G01X8723Y9754D01*
G01X8704Y9730D01*
G01X8681Y9703D01*
G01X8670Y9691D01*
G01X8659Y9678D01*
G01X8647Y9664D01*
G01X8634Y9650D01*
G01X8595Y9605D01*
G01X8581Y9590D01*
G01X8581Y9550D01*
G01X8852Y9550D01*
G01X8852Y9601D01*
G01X8623Y9601D01*
G01X8646Y9623D01*
G01X8667Y9645D01*
G01X8686Y9665D01*
G01X8702Y9680D01*
G01X8725Y9705D01*
G01X8745Y9727D01*
G01X8764Y9747D01*
G01X8779Y9765D01*
G01X8793Y9782D01*
G01X8804Y9798D01*
G01X8814Y9813D01*
G01X8821Y9827D01*
G01X8827Y9840D01*
G01X8831Y9854D01*
G01X8833Y9867D01*
G01X8834Y9882D01*
G01X8832Y9906D01*
G01X8826Y9929D01*
G01X8817Y9949D01*
G01X8804Y9966D01*
G01X8787Y9980D01*
G01X8765Y9990D01*
G01X8740Y9996D01*
G37*

%LPD*%
G36*
G01X11696Y9627D02*
G01X11677Y9630D01*
G01X11660Y9627D01*
G01X11647Y9617D01*
G01X11637Y9603D01*
G01X11634Y9584D01*
G01X11637Y9568D01*
G01X11647Y9554D01*
G01X11660Y9545D01*
G01X11677Y9542D01*
G01X11696Y9545D01*
G01X11710Y9554D01*
G01X11719Y9568D01*
G01X11722Y9584D01*
G01X11719Y9603D01*
G01X11710Y9617D01*
G01X11696Y9627D01*
G37*

%LPD*%
G36*
G01X10839Y9627D02*
G01X10822Y9630D01*
G01X10805Y9627D01*
G01X10790Y9617D01*
G01X10781Y9603D01*
G01X10777Y9584D01*
G01X10781Y9568D01*
G01X10790Y9554D01*
G01X10805Y9545D01*
G01X10822Y9542D01*
G01X10839Y9545D01*
G01X10853Y9554D01*
G01X10863Y9568D01*
G01X10867Y9584D01*
G01X10863Y9603D01*
G01X10853Y9617D01*
G01X10839Y9627D01*
G37*

%LPD*%
G36*
G01X10248Y9997D02*
G01X10231Y9998D01*
G01X10213Y9997D01*
G01X10196Y9993D01*
G01X10179Y9986D01*
G01X10163Y9976D01*
G01X10148Y9964D01*
G01X10134Y9947D01*
G01X10122Y9928D01*
G01X10112Y9905D01*
G01X10103Y9878D01*
G01X10097Y9846D01*
G01X10093Y9812D01*
G01X10092Y9773D01*
G01X10093Y9732D01*
G01X10097Y9696D01*
G01X10103Y9665D01*
G01X10112Y9637D01*
G01X10122Y9613D01*
G01X10134Y9593D01*
G01X10148Y9577D01*
G01X10163Y9564D01*
G01X10179Y9554D01*
G01X10196Y9547D01*
G01X10213Y9543D01*
G01X10231Y9542D01*
G01X10248Y9543D01*
G01X10264Y9547D01*
G01X10281Y9554D01*
G01X10297Y9564D01*
G01X10311Y9577D01*
G01X10324Y9593D01*
G01X10336Y9613D01*
G01X10347Y9637D01*
G01X10355Y9665D01*
G01X10361Y9696D01*
G01X10365Y9732D01*
G01X10367Y9773D01*
G01X10365Y9812D01*
G01X10361Y9846D01*
G01X10355Y9878D01*
G01X10347Y9905D01*
G01X10336Y9928D01*
G01X10324Y9947D01*
G01X10311Y9964D01*
G01X10297Y9976D01*
G01X10281Y9986D01*
G01X10264Y9993D01*
G01X10248Y9997D01*
G37*

%LPC*%
G36*
G01X10240Y9971D02*
G01X10220Y9971D01*
G01X10210Y9968D01*
G01X10200Y9963D01*
G01X10191Y9955D01*
G01X10182Y9945D01*
G01X10174Y9931D01*
G01X10167Y9915D01*
G01X10161Y9894D01*
G01X10156Y9870D01*
G01X10152Y9842D01*
G01X10150Y9810D01*
G01X10150Y9734D01*
G01X10152Y9700D01*
G01X10156Y9671D01*
G01X10161Y9646D01*
G01X10167Y9625D01*
G01X10174Y9608D01*
G01X10182Y9594D01*
G01X10191Y9584D01*
G01X10200Y9576D01*
G01X10210Y9570D01*
G01X10220Y9567D01*
G01X10240Y9567D01*
G01X10250Y9571D01*
G01X10260Y9576D01*
G01X10268Y9584D01*
G01X10277Y9594D01*
G01X10285Y9608D01*
G01X10291Y9626D01*
G01X10297Y9647D01*
G01X10302Y9671D01*
G01X10306Y9701D01*
G01X10308Y9734D01*
G01X10309Y9773D01*
G01X10308Y9810D01*
G01X10306Y9842D01*
G01X10302Y9870D01*
G01X10297Y9894D01*
G01X10291Y9915D01*
G01X10285Y9931D01*
G01X10277Y9945D01*
G01X10268Y9955D01*
G01X10260Y9963D01*
G01X10250Y9968D01*
G01X10240Y9971D01*
G37*

%LPD*%
G36*
G01X9983Y9627D02*
G01X9965Y9630D01*
G01X9948Y9627D01*
G01X9934Y9617D01*
G01X9925Y9603D01*
G01X9922Y9584D01*
G01X9925Y9568D01*
G01X9934Y9554D01*
G01X9948Y9545D01*
G01X9965Y9542D01*
G01X9983Y9545D01*
G01X9997Y9554D01*
G01X10007Y9568D01*
G01X10010Y9584D01*
G01X10007Y9603D01*
G01X9997Y9617D01*
G01X9983Y9627D01*
G37*

%LPD*%
G36*
G01X9721Y9997D02*
G01X9703Y9998D01*
G01X9686Y9997D01*
G01X9668Y9993D01*
G01X9652Y9986D01*
G01X9636Y9976D01*
G01X9621Y9964D01*
G01X9607Y9947D01*
G01X9595Y9928D01*
G01X9585Y9905D01*
G01X9576Y9878D01*
G01X9570Y9846D01*
G01X9566Y9812D01*
G01X9564Y9773D01*
G01X9566Y9732D01*
G01X9570Y9696D01*
G01X9576Y9665D01*
G01X9585Y9637D01*
G01X9595Y9613D01*
G01X9607Y9593D01*
G01X9621Y9577D01*
G01X9636Y9564D01*
G01X9652Y9554D01*
G01X9668Y9547D01*
G01X9686Y9543D01*
G01X9703Y9542D01*
G01X9721Y9543D01*
G01X9738Y9547D01*
G01X9754Y9554D01*
G01X9770Y9564D01*
G01X9784Y9577D01*
G01X9798Y9593D01*
G01X9810Y9613D01*
G01X9820Y9637D01*
G01X9829Y9665D01*
G01X9835Y9696D01*
G01X9839Y9732D01*
G01X9840Y9773D01*
G01X9839Y9812D01*
G01X9835Y9846D01*
G01X9829Y9878D01*
G01X9820Y9905D01*
G01X9810Y9928D01*
G01X9798Y9947D01*
G01X9784Y9964D01*
G01X9770Y9976D01*
G01X9754Y9986D01*
G01X9738Y9993D01*
G01X9721Y9997D01*
G37*

%LPC*%
G36*
G01X9714Y9971D02*
G01X9693Y9971D01*
G01X9683Y9968D01*
G01X9673Y9963D01*
G01X9664Y9955D01*
G01X9655Y9945D01*
G01X9647Y9931D01*
G01X9640Y9915D01*
G01X9634Y9894D01*
G01X9629Y9870D01*
G01X9626Y9842D01*
G01X9623Y9810D01*
G01X9622Y9773D01*
G01X9623Y9734D01*
G01X9626Y9700D01*
G01X9629Y9671D01*
G01X9634Y9646D01*
G01X9640Y9625D01*
G01X9647Y9608D01*
G01X9655Y9594D01*
G01X9664Y9584D01*
G01X9673Y9576D01*
G01X9683Y9570D01*
G01X9693Y9567D01*
G01X9714Y9567D01*
G01X9723Y9571D01*
G01X9732Y9576D01*
G01X9742Y9584D01*
G01X9750Y9594D01*
G01X9757Y9608D01*
G01X9764Y9626D01*
G01X9770Y9647D01*
G01X9775Y9671D01*
G01X9778Y9701D01*
G01X9781Y9734D01*
G01X9781Y9810D01*
G01X9778Y9842D01*
G01X9775Y9870D01*
G01X9770Y9894D01*
G01X9764Y9915D01*
G01X9757Y9931D01*
G01X9750Y9945D01*
G01X9742Y9955D01*
G01X9732Y9963D01*
G01X9723Y9968D01*
G01X9714Y9971D01*
G37*

%LPD*%
G36*
G01X9062Y9997D02*
G01X9044Y9998D01*
G01X9027Y9997D01*
G01X9010Y9993D01*
G01X8993Y9986D01*
G01X8977Y9976D01*
G01X8962Y9964D01*
G01X8948Y9947D01*
G01X8936Y9928D01*
G01X8926Y9905D01*
G01X8917Y9878D01*
G01X8911Y9846D01*
G01X8907Y9812D01*
G01X8906Y9773D01*
G01X8907Y9732D01*
G01X8911Y9696D01*
G01X8917Y9665D01*
G01X8926Y9637D01*
G01X8936Y9613D01*
G01X8948Y9593D01*
G01X8962Y9577D01*
G01X8977Y9564D01*
G01X8993Y9554D01*
G01X9010Y9547D01*
G01X9027Y9543D01*
G01X9044Y9542D01*
G01X9062Y9543D01*
G01X9079Y9547D01*
G01X9095Y9554D01*
G01X9111Y9564D01*
G01X9125Y9577D01*
G01X9139Y9593D01*
G01X9151Y9613D01*
G01X9161Y9637D01*
G01X9170Y9665D01*
G01X9176Y9696D01*
G01X9180Y9732D01*
G01X9181Y9773D01*
G01X9180Y9812D01*
G01X9176Y9846D01*
G01X9170Y9878D01*
G01X9161Y9905D01*
G01X9151Y9928D01*
G01X9139Y9947D01*
G01X9125Y9964D01*
G01X9111Y9976D01*
G01X9095Y9986D01*
G01X9079Y9993D01*
G01X9062Y9997D01*
G37*

%LPC*%
G36*
G01X9055Y9971D02*
G01X9034Y9971D01*
G01X9024Y9968D01*
G01X9014Y9963D01*
G01X9005Y9955D01*
G01X8997Y9945D01*
G01X8989Y9931D01*
G01X8982Y9915D01*
G01X8976Y9894D01*
G01X8971Y9870D01*
G01X8968Y9842D01*
G01X8965Y9810D01*
G01X8964Y9773D01*
G01X8965Y9734D01*
G01X8968Y9700D01*
G01X8971Y9671D01*
G01X8976Y9646D01*
G01X8982Y9625D01*
G01X8989Y9608D01*
G01X8997Y9594D01*
G01X9005Y9584D01*
G01X9014Y9576D01*
G01X9024Y9570D01*
G01X9034Y9567D01*
G01X9055Y9567D01*
G01X9064Y9571D01*
G01X9073Y9576D01*
G01X9082Y9584D01*
G01X9091Y9594D01*
G01X9098Y9608D01*
G01X9105Y9626D01*
G01X9111Y9647D01*
G01X9116Y9671D01*
G01X9119Y9701D01*
G01X9122Y9734D01*
G01X9122Y9810D01*
G01X9119Y9842D01*
G01X9116Y9870D01*
G01X9111Y9894D01*
G01X9105Y9915D01*
G01X9098Y9931D01*
G01X9091Y9945D01*
G01X9082Y9955D01*
G01X9073Y9963D01*
G01X9064Y9968D01*
G01X9055Y9971D01*
G37*

%LPD*%
G01X23600Y30353D02*
G01X23600Y29925D01*
G01X23600Y29925D02*
G01X23844Y29925D01*
G01X24286Y30252D02*
G01X24267Y30292D01*
G01X24226Y30334D01*
G01X24185Y30353D01*
G01X24102Y30353D01*
G01X24061Y30334D01*
G01X24021Y30292D01*
G01X24001Y30252D01*
G01X23980Y30190D01*
G01X23980Y30088D01*
G01X24001Y30027D01*
G01X24021Y29986D01*
G01X24061Y29944D01*
G01X24102Y29925D01*
G01X24185Y29925D01*
G01X24226Y29944D01*
G01X24267Y29986D01*
G01X24286Y30027D01*
G01X24422Y30353D02*
G01X24422Y29925D01*
G01X24422Y30353D02*
G01X24564Y30353D01*
G01X24627Y30334D01*
G01X24668Y30292D01*
G01X24688Y30252D01*
G01X24709Y30190D01*
G01X24709Y30088D01*
G01X24688Y30027D01*
G01X24668Y29986D01*
G01X24627Y29944D01*
G01X24564Y29925D01*
G01X24422Y29925D01*
G01X24843Y30271D02*
G01X24885Y30292D01*
G01X24946Y30353D01*
G01X24946Y29925D01*
G01X3100Y6003D02*
G01X3100Y5575D01*
G01X3100Y6003D02*
G01X3284Y6003D01*
G01X3344Y5984D01*
G01X3365Y5963D01*
G01X3386Y5921D01*
G01X3386Y5880D01*
G01X3365Y5840D01*
G01X3344Y5819D01*
G01X3284Y5800D01*
G01X3100Y5800D01*
G01X3242Y5800D02*
G01X3386Y5575D01*
G01X3767Y6003D02*
G01X3561Y6003D01*
G01X3542Y5819D01*
G01X3561Y5840D01*
G01X3623Y5861D01*
G01X3684Y5861D01*
G01X3746Y5840D01*
G01X3786Y5800D01*
G01X3807Y5738D01*
G01X3807Y5696D01*
G01X3786Y5636D01*
G01X3746Y5594D01*
G01X3684Y5575D01*
G01X3623Y5575D01*
G01X3561Y5594D01*
G01X3542Y5615D01*
G01X3521Y5655D01*
G01X9400Y5903D02*
G01X9400Y5475D01*
G01X9400Y5903D02*
G01X9584Y5903D01*
G01X9644Y5884D01*
G01X9665Y5863D01*
G01X9685Y5821D01*
G01X9685Y5780D01*
G01X9665Y5740D01*
G01X9644Y5719D01*
G01X9584Y5700D01*
G01X9400Y5700D01*
G01X9543Y5700D02*
G01X9685Y5475D01*
G01X9821Y5821D02*
G01X9861Y5842D01*
G01X9923Y5903D01*
G01X9923Y5475D01*
G01X17250Y10153D02*
G01X17250Y9725D01*
G01X17250Y10153D02*
G01X17434Y10153D01*
G01X17494Y10134D01*
G01X17515Y10113D01*
G01X17535Y10071D01*
G01X17535Y10011D01*
G01X17515Y9969D01*
G01X17494Y9950D01*
G01X17434Y9928D01*
G01X17250Y9928D01*
G01X17671Y10071D02*
G01X17711Y10092D01*
G01X17773Y10153D01*
G01X17773Y9725D01*
G01X30550Y7753D02*
G01X30550Y7325D01*
G01X30550Y7753D02*
G01X30734Y7753D01*
G01X30794Y7734D01*
G01X30815Y7713D01*
G01X30835Y7671D01*
G01X30835Y7611D01*
G01X30815Y7569D01*
G01X30794Y7550D01*
G01X30734Y7528D01*
G01X30550Y7528D01*
G01X30992Y7651D02*
G01X30992Y7671D01*
G01X31011Y7713D01*
G01X31032Y7734D01*
G01X31073Y7753D01*
G01X31155Y7753D01*
G01X31196Y7734D01*
G01X31217Y7713D01*
G01X31236Y7671D01*
G01X31236Y7630D01*
G01X31217Y7590D01*
G01X31176Y7528D01*
G01X30971Y7325D01*
G01X31257Y7325D01*
G01X31700Y7203D02*
G01X31700Y6775D01*
G01X31700Y7203D02*
G01X31884Y7203D01*
G01X31944Y7184D01*
G01X31965Y7163D01*
G01X31985Y7121D01*
G01X31985Y7061D01*
G01X31965Y7019D01*
G01X31944Y7000D01*
G01X31884Y6978D01*
G01X31700Y6978D01*
G01X32161Y7203D02*
G01X32386Y7203D01*
G01X32264Y7040D01*
G01X32326Y7040D01*
G01X32367Y7019D01*
G01X32386Y7000D01*
G01X32407Y6938D01*
G01X32407Y6896D01*
G01X32386Y6836D01*
G01X32346Y6794D01*
G01X32285Y6775D01*
G01X32223Y6775D01*
G01X32161Y6794D01*
G01X32142Y6815D01*
G01X32121Y6855D01*
G01X17300Y8203D02*
G01X17300Y7775D01*
G01X17300Y8203D02*
G01X17484Y8203D01*
G01X17544Y8184D01*
G01X17565Y8163D01*
G01X17585Y8121D01*
G01X17585Y8061D01*
G01X17565Y8019D01*
G01X17544Y8000D01*
G01X17484Y7978D01*
G01X17300Y7978D01*
G01X17926Y8203D02*
G01X17721Y7917D01*
G01X18027Y7917D01*
G01X17926Y8203D02*
G01X17926Y7775D01*
G01X14900Y4453D02*
G01X14900Y4025D01*
G01X14900Y4453D02*
G01X15084Y4453D01*
G01X15144Y4434D01*
G01X15165Y4413D01*
G01X15185Y4371D01*
G01X15185Y4311D01*
G01X15165Y4269D01*
G01X15144Y4250D01*
G01X15084Y4228D01*
G01X14900Y4228D01*
G01X15567Y4453D02*
G01X15361Y4453D01*
G01X15342Y4269D01*
G01X15361Y4290D01*
G01X15423Y4311D01*
G01X15485Y4311D01*
G01X15546Y4290D01*
G01X15586Y4250D01*
G01X15607Y4188D01*
G01X15607Y4146D01*
G01X15586Y4086D01*
G01X15546Y4044D01*
G01X15485Y4025D01*
G01X15423Y4025D01*
G01X15361Y4044D01*
G01X15342Y4065D01*
G01X15321Y4105D01*
G01X26350Y8896D02*
G01X26350Y9203D01*
G01X26330Y9263D01*
G01X26289Y9305D01*
G01X26227Y9325D01*
G01X26185Y9325D01*
G01X26125Y9305D01*
G01X26084Y9263D01*
G01X26064Y9203D01*
G01X26064Y8896D01*
G01X25907Y8998D02*
G01X25907Y8978D01*
G01X25888Y8936D01*
G01X25867Y8915D01*
G01X25826Y8896D01*
G01X25744Y8896D01*
G01X25703Y8915D01*
G01X25682Y8936D01*
G01X25663Y8978D01*
G01X25663Y9019D01*
G01X25682Y9059D01*
G01X25723Y9121D01*
G01X25928Y9325D01*
G01X25642Y9325D01*
G01X7100Y30153D02*
G01X7100Y29846D01*
G01X7119Y29786D01*
G01X7160Y29744D01*
G01X7222Y29725D01*
G01X7264Y29725D01*
G01X7325Y29744D01*
G01X7365Y29786D01*
G01X7385Y29846D01*
G01X7385Y30153D01*
G01X7521Y30071D02*
G01X7561Y30092D01*
G01X7623Y30153D01*
G01X7623Y29725D01*
G54D21*
G01X1563Y28527D02*
G01X1563Y28144D01*
G01X1563Y28527D02*
G01X1690Y28527D01*
G01X1744Y28509D01*
G01X1780Y28473D01*
G01X1798Y28436D01*
G01X1817Y28382D01*
G01X1817Y28290D01*
G01X1798Y28236D01*
G01X1780Y28200D01*
G01X1744Y28163D01*
G01X1690Y28144D01*
G01X1563Y28144D01*
G01X1938Y28453D02*
G01X1973Y28473D01*
G01X2028Y28527D01*
G01X2028Y28144D01*
G01X2476Y28600D02*
G01X2148Y28017D01*
G01X2723Y28527D02*
G01X2723Y28144D01*
G01X2596Y28527D02*
G01X2850Y28527D01*
G01X2969Y28527D02*
G01X3225Y28144D01*
G01X3225Y28527D02*
G01X2969Y28144D01*
G01X11572Y27327D02*
G01X11555Y27363D01*
G01X11518Y27400D01*
G01X11481Y27417D01*
G01X11409Y27417D01*
G01X11372Y27400D01*
G01X11335Y27363D01*
G01X11318Y27327D01*
G01X11300Y27273D01*
G01X11300Y27182D01*
G01X11318Y27127D01*
G01X11335Y27090D01*
G01X11372Y27055D01*
G01X11409Y27036D01*
G01X11481Y27036D01*
G01X11518Y27055D01*
G01X11555Y27090D01*
G01X11572Y27127D01*
G01X11572Y27182D01*
G01X11481Y27182D02*
G01X11572Y27182D01*
G01X11693Y27417D02*
G01X11693Y27036D01*
G01X11693Y27417D02*
G01X11947Y27036D01*
G01X11947Y27417D02*
G01X11947Y27036D01*
G01X12067Y27417D02*
G01X12067Y27036D01*
G01X12067Y27417D02*
G01X12194Y27417D01*
G01X12248Y27400D01*
G01X12285Y27363D01*
G01X12303Y27327D01*
G01X12322Y27273D01*
G01X12322Y27182D01*
G01X12303Y27127D01*
G01X12285Y27090D01*
G01X12248Y27055D01*
G01X12194Y27036D01*
G01X12067Y27036D01*
G01X11464Y25263D02*
G01X11464Y24936D01*
G01X11300Y25100D02*
G01X11627Y25100D01*
G01X11964Y25317D02*
G01X11784Y25317D01*
G01X11764Y25155D01*
G01X11784Y25173D01*
G01X11838Y25190D01*
G01X11893Y25190D01*
G01X11947Y25173D01*
G01X11984Y25136D01*
G01X12002Y25082D01*
G01X12002Y25044D01*
G01X11984Y24990D01*
G01X11947Y24955D01*
G01X11893Y24936D01*
G01X11838Y24936D01*
G01X11784Y24955D01*
G01X11764Y24973D01*
G01X11747Y25009D01*
G01X12122Y25317D02*
G01X12267Y24936D01*
G01X12413Y25317D02*
G01X12267Y24936D01*
G01X621Y14417D02*
G01X621Y14036D01*
G01X621Y14417D02*
G01X748Y14417D01*
G01X803Y14400D01*
G01X838Y14363D01*
G01X857Y14326D01*
G01X876Y14273D01*
G01X876Y14182D01*
G01X857Y14126D01*
G01X838Y14090D01*
G01X803Y14055D01*
G01X748Y14036D01*
G01X621Y14036D01*
G01X996Y14344D02*
G01X1032Y14363D01*
G01X1086Y14417D01*
G01X1086Y14036D01*
G01X1225Y14326D02*
G01X1225Y14344D01*
G01X1242Y14382D01*
G01X1261Y14400D01*
G01X1296Y14417D01*
G01X1369Y14417D01*
G01X1405Y14400D01*
G01X1425Y14382D01*
G01X1442Y14344D01*
G01X1442Y14309D01*
G01X1425Y14273D01*
G01X1388Y14217D01*
G01X1205Y14036D01*
G01X1461Y14036D01*
G01X1907Y14490D02*
G01X1580Y13909D01*
G01X2028Y14417D02*
G01X2028Y14036D01*
G01X2028Y14417D02*
G01X2173Y14036D01*
G01X2319Y14417D02*
G01X2173Y14036D01*
G01X2319Y14417D02*
G01X2319Y14036D01*
G01X2438Y14417D02*
G01X2438Y14036D01*
G01X2813Y14363D02*
G01X2776Y14400D01*
G01X2723Y14417D01*
G01X2650Y14417D01*
G01X2596Y14400D01*
G01X2559Y14363D01*
G01X2559Y14326D01*
G01X2576Y14290D01*
G01X2596Y14273D01*
G01X2632Y14255D01*
G01X2740Y14217D01*
G01X2776Y14200D01*
G01X2796Y14182D01*
G01X2813Y14144D01*
G01X2813Y14090D01*
G01X2776Y14055D01*
G01X2723Y14036D01*
G01X2650Y14036D01*
G01X2596Y14055D01*
G01X2559Y14090D01*
G01X3042Y14417D02*
G01X3005Y14400D01*
G01X2969Y14363D01*
G01X2951Y14326D01*
G01X2934Y14273D01*
G01X2934Y14182D01*
G01X2951Y14126D01*
G01X2969Y14090D01*
G01X3005Y14055D01*
G01X3042Y14036D01*
G01X3115Y14036D01*
G01X3151Y14055D01*
G01X3188Y14090D01*
G01X3205Y14126D01*
G01X3225Y14182D01*
G01X3225Y14273D01*
G01X3205Y14326D01*
G01X3188Y14363D01*
G01X3151Y14400D01*
G01X3115Y14417D01*
G01X3042Y14417D01*
G01X11300Y28417D02*
G01X11444Y28036D01*
G01X11590Y28417D02*
G01X11444Y28036D01*
G01X11710Y28417D02*
G01X11710Y28036D01*
G01X11831Y28417D02*
G01X11831Y28036D01*
G01X11831Y28417D02*
G01X12085Y28036D01*
G01X12085Y28417D02*
G01X12085Y28036D01*
G01X11300Y14317D02*
G01X11300Y13936D01*
G01X11300Y14317D02*
G01X11427Y14317D01*
G01X11481Y14300D01*
G01X11518Y14263D01*
G01X11535Y14226D01*
G01X11555Y14173D01*
G01X11555Y14082D01*
G01X11535Y14026D01*
G01X11518Y13990D01*
G01X11481Y13955D01*
G01X11427Y13936D01*
G01X11300Y13936D01*
G01X11675Y14244D02*
G01X11710Y14263D01*
G01X11764Y14317D01*
G01X11764Y13936D01*
G01X11922Y14317D02*
G01X12122Y14317D01*
G01X12013Y14173D01*
G01X12067Y14173D01*
G01X12103Y14155D01*
G01X12122Y14136D01*
G01X12139Y14082D01*
G01X12139Y14044D01*
G01X12122Y13990D01*
G01X12085Y13955D01*
G01X12031Y13936D01*
G01X11976Y13936D01*
G01X11922Y13955D01*
G01X11903Y13973D01*
G01X11885Y14009D01*
G01X12586Y14390D02*
G01X12260Y13809D01*
G01X12961Y14263D02*
G01X12925Y14300D01*
G01X12871Y14317D01*
G01X12797Y14317D01*
G01X12743Y14300D01*
G01X12706Y14263D01*
G01X12706Y14226D01*
G01X12725Y14190D01*
G01X12743Y14173D01*
G01X12780Y14155D01*
G01X12889Y14117D01*
G01X12925Y14100D01*
G01X12943Y14082D01*
G01X12961Y14044D01*
G01X12961Y13990D01*
G01X12925Y13955D01*
G01X12871Y13936D01*
G01X12797Y13936D01*
G01X12743Y13955D01*
G01X12706Y13990D01*
G01X13355Y14226D02*
G01X13335Y14263D01*
G01X13300Y14300D01*
G01X13264Y14317D01*
G01X13190Y14317D01*
G01X13155Y14300D01*
G01X13118Y14263D01*
G01X13100Y14226D01*
G01X13081Y14173D01*
G01X13081Y14082D01*
G01X13100Y14026D01*
G01X13118Y13990D01*
G01X13155Y13955D01*
G01X13190Y13936D01*
G01X13264Y13936D01*
G01X13300Y13955D01*
G01X13335Y13990D01*
G01X13355Y14026D01*
G01X13475Y14317D02*
G01X13475Y13936D01*
G01X13728Y14317D02*
G01X13475Y14063D01*
G01X13564Y14155D02*
G01X13728Y13936D01*
G01X2476Y25327D02*
G01X2457Y25363D01*
G01X2421Y25400D01*
G01X2384Y25417D01*
G01X2311Y25417D01*
G01X2276Y25400D01*
G01X2238Y25363D01*
G01X2221Y25327D01*
G01X2203Y25273D01*
G01X2203Y25182D01*
G01X2221Y25127D01*
G01X2238Y25090D01*
G01X2276Y25055D01*
G01X2311Y25036D01*
G01X2384Y25036D01*
G01X2421Y25055D01*
G01X2457Y25090D01*
G01X2476Y25127D01*
G01X2476Y25182D01*
G01X2384Y25182D02*
G01X2476Y25182D01*
G01X2596Y25417D02*
G01X2596Y25036D01*
G01X2596Y25417D02*
G01X2850Y25036D01*
G01X2850Y25417D02*
G01X2850Y25036D01*
G01X2969Y25417D02*
G01X2969Y25036D01*
G01X2969Y25417D02*
G01X3098Y25417D01*
G01X3151Y25400D01*
G01X3188Y25363D01*
G01X3207Y25327D01*
G01X3225Y25273D01*
G01X3225Y25182D01*
G01X3207Y25127D01*
G01X3188Y25090D01*
G01X3151Y25055D01*
G01X3098Y25036D01*
G01X2969Y25036D01*
G01X1400Y27327D02*
G01X1400Y26944D01*
G01X1400Y27327D02*
G01X1526Y27327D01*
G01X1582Y27309D01*
G01X1617Y27273D01*
G01X1636Y27236D01*
G01X1655Y27182D01*
G01X1655Y27090D01*
G01X1636Y27036D01*
G01X1617Y27000D01*
G01X1582Y26963D01*
G01X1526Y26944D01*
G01X1400Y26944D01*
G01X1884Y27327D02*
G01X1828Y27309D01*
G01X1792Y27253D01*
G01X1775Y27163D01*
G01X1775Y27109D01*
G01X1792Y27017D01*
G01X1828Y26963D01*
G01X1884Y26944D01*
G01X1919Y26944D01*
G01X1975Y26963D01*
G01X2011Y27017D01*
G01X2028Y27109D01*
G01X2028Y27163D01*
G01X2011Y27253D01*
G01X1975Y27309D01*
G01X1919Y27327D01*
G01X1884Y27327D01*
G01X2476Y27400D02*
G01X2148Y26817D01*
G01X2596Y27327D02*
G01X2596Y26944D01*
G01X2596Y27327D02*
G01X2759Y27327D01*
G01X2815Y27309D01*
G01X2832Y27290D01*
G01X2851Y27253D01*
G01X2851Y27217D01*
G01X2832Y27182D01*
G01X2815Y27163D01*
G01X2759Y27144D01*
G01X2596Y27144D01*
G01X2723Y27144D02*
G01X2851Y26944D01*
G01X2971Y27327D02*
G01X3225Y26944D01*
G01X3225Y27327D02*
G01X2971Y26944D01*
G01X1509Y26400D02*
G01X1509Y26017D01*
G01X1509Y26400D02*
G01X1673Y26400D01*
G01X1726Y26382D01*
G01X1744Y26363D01*
G01X1763Y26327D01*
G01X1763Y26290D01*
G01X1744Y26255D01*
G01X1726Y26236D01*
G01X1673Y26217D01*
G01X1509Y26217D01*
G01X1636Y26217D02*
G01X1763Y26017D01*
G01X1884Y26400D02*
G01X1884Y26017D01*
G01X1884Y26400D02*
G01X2119Y26400D01*
G01X1884Y26217D02*
G01X2028Y26217D01*
G01X1884Y26017D02*
G01X2119Y26017D01*
G01X2494Y26346D02*
G01X2457Y26382D01*
G01X2403Y26400D01*
G01X2330Y26400D01*
G01X2276Y26382D01*
G01X2240Y26346D01*
G01X2240Y26309D01*
G01X2257Y26273D01*
G01X2276Y26255D01*
G01X2313Y26236D01*
G01X2421Y26200D01*
G01X2457Y26182D01*
G01X2476Y26163D01*
G01X2494Y26127D01*
G01X2494Y26073D01*
G01X2457Y26036D01*
G01X2403Y26017D01*
G01X2330Y26017D01*
G01X2276Y26036D01*
G01X2240Y26073D01*
G01X2613Y26400D02*
G01X2613Y26017D01*
G01X2613Y26400D02*
G01X2851Y26400D01*
G01X2613Y26217D02*
G01X2759Y26217D01*
G01X2613Y26017D02*
G01X2851Y26017D01*
G01X3098Y26400D02*
G01X3098Y26017D01*
G01X2971Y26400D02*
G01X3225Y26400D01*
G01X2596Y24417D02*
G01X2596Y24036D01*
G01X2596Y24417D02*
G01X2723Y24417D01*
G01X2778Y24400D01*
G01X2813Y24363D01*
G01X2832Y24327D01*
G01X2851Y24273D01*
G01X2851Y24182D01*
G01X2832Y24127D01*
G01X2813Y24090D01*
G01X2778Y24055D01*
G01X2723Y24036D01*
G01X2596Y24036D01*
G01X2988Y24327D02*
G01X2988Y24344D01*
G01X3007Y24382D01*
G01X3025Y24400D01*
G01X3061Y24417D01*
G01X3134Y24417D01*
G01X3171Y24400D01*
G01X3188Y24382D01*
G01X3207Y24344D01*
G01X3207Y24309D01*
G01X3188Y24273D01*
G01X3151Y24217D01*
G01X2971Y24036D01*
G01X3225Y24036D01*
G01X2596Y23417D02*
G01X2596Y23036D01*
G01X2596Y23417D02*
G01X2723Y23417D01*
G01X2778Y23400D01*
G01X2813Y23363D01*
G01X2832Y23327D01*
G01X2851Y23273D01*
G01X2851Y23182D01*
G01X2832Y23127D01*
G01X2813Y23090D01*
G01X2778Y23055D01*
G01X2723Y23036D01*
G01X2596Y23036D01*
G01X3007Y23417D02*
G01X3207Y23417D01*
G01X3098Y23273D01*
G01X3151Y23273D01*
G01X3188Y23255D01*
G01X3207Y23236D01*
G01X3225Y23182D01*
G01X3225Y23144D01*
G01X3207Y23090D01*
G01X3171Y23055D01*
G01X3115Y23036D01*
G01X3061Y23036D01*
G01X3007Y23055D01*
G01X2988Y23073D01*
G01X2971Y23109D01*
G01X2578Y22417D02*
G01X2578Y22036D01*
G01X2578Y22417D02*
G01X2705Y22417D01*
G01X2759Y22400D01*
G01X2796Y22363D01*
G01X2813Y22327D01*
G01X2832Y22273D01*
G01X2832Y22182D01*
G01X2813Y22127D01*
G01X2796Y22090D01*
G01X2759Y22055D01*
G01X2705Y22036D01*
G01X2578Y22036D01*
G01X3134Y22417D02*
G01X2953Y22163D01*
G01X3225Y22163D01*
G01X3134Y22417D02*
G01X3134Y22036D01*
G01X2596Y21517D02*
G01X2596Y21136D01*
G01X2596Y21517D02*
G01X2723Y21517D01*
G01X2778Y21500D01*
G01X2813Y21463D01*
G01X2832Y21427D01*
G01X2851Y21373D01*
G01X2851Y21282D01*
G01X2832Y21227D01*
G01X2813Y21190D01*
G01X2778Y21155D01*
G01X2723Y21136D01*
G01X2596Y21136D01*
G01X3188Y21517D02*
G01X3007Y21517D01*
G01X2988Y21355D01*
G01X3007Y21373D01*
G01X3061Y21390D01*
G01X3115Y21390D01*
G01X3171Y21373D01*
G01X3207Y21336D01*
G01X3225Y21282D01*
G01X3225Y21244D01*
G01X3207Y21190D01*
G01X3171Y21155D01*
G01X3115Y21136D01*
G01X3061Y21136D01*
G01X3007Y21155D01*
G01X2988Y21173D01*
G01X2971Y21209D01*
G01X2613Y20517D02*
G01X2613Y20136D01*
G01X2613Y20517D02*
G01X2740Y20517D01*
G01X2796Y20500D01*
G01X2832Y20463D01*
G01X2850Y20427D01*
G01X2869Y20373D01*
G01X2869Y20282D01*
G01X2850Y20227D01*
G01X2832Y20190D01*
G01X2796Y20155D01*
G01X2740Y20136D01*
G01X2613Y20136D01*
G01X3207Y20463D02*
G01X3188Y20500D01*
G01X3134Y20517D01*
G01X3098Y20517D01*
G01X3042Y20500D01*
G01X3007Y20444D01*
G01X2988Y20355D01*
G01X2988Y20263D01*
G01X3007Y20190D01*
G01X3042Y20155D01*
G01X3098Y20136D01*
G01X3115Y20136D01*
G01X3169Y20155D01*
G01X3207Y20190D01*
G01X3225Y20244D01*
G01X3225Y20263D01*
G01X3207Y20317D01*
G01X3169Y20355D01*
G01X3115Y20373D01*
G01X3098Y20373D01*
G01X3042Y20355D01*
G01X3007Y20317D01*
G01X2988Y20263D01*
G01X2596Y19417D02*
G01X2596Y19036D01*
G01X2596Y19417D02*
G01X2723Y19417D01*
G01X2778Y19400D01*
G01X2813Y19363D01*
G01X2832Y19327D01*
G01X2851Y19273D01*
G01X2851Y19182D01*
G01X2832Y19127D01*
G01X2813Y19090D01*
G01X2778Y19055D01*
G01X2723Y19036D01*
G01X2596Y19036D01*
G01X3225Y19417D02*
G01X3042Y19036D01*
G01X2971Y19417D02*
G01X3225Y19417D01*
G01X2596Y18517D02*
G01X2596Y18136D01*
G01X2596Y18517D02*
G01X2723Y18517D01*
G01X2778Y18500D01*
G01X2813Y18463D01*
G01X2832Y18427D01*
G01X2851Y18373D01*
G01X2851Y18282D01*
G01X2832Y18227D01*
G01X2813Y18190D01*
G01X2778Y18155D01*
G01X2723Y18136D01*
G01X2596Y18136D01*
G01X3061Y18517D02*
G01X3007Y18500D01*
G01X2988Y18463D01*
G01X2988Y18427D01*
G01X3007Y18390D01*
G01X3042Y18373D01*
G01X3115Y18355D01*
G01X3171Y18336D01*
G01X3207Y18300D01*
G01X3225Y18263D01*
G01X3225Y18209D01*
G01X3207Y18173D01*
G01X3188Y18155D01*
G01X3134Y18136D01*
G01X3061Y18136D01*
G01X3007Y18155D01*
G01X2988Y18173D01*
G01X2971Y18209D01*
G01X2971Y18263D01*
G01X2988Y18300D01*
G01X3025Y18336D01*
G01X3080Y18355D01*
G01X3151Y18373D01*
G01X3188Y18390D01*
G01X3207Y18427D01*
G01X3207Y18463D01*
G01X3188Y18500D01*
G01X3134Y18517D01*
G01X3061Y18517D01*
G01X2613Y17517D02*
G01X2613Y17136D01*
G01X2613Y17517D02*
G01X2740Y17517D01*
G01X2796Y17500D01*
G01X2832Y17463D01*
G01X2850Y17427D01*
G01X2869Y17373D01*
G01X2869Y17282D01*
G01X2850Y17227D01*
G01X2832Y17190D01*
G01X2796Y17155D01*
G01X2740Y17136D01*
G01X2613Y17136D01*
G01X3225Y17390D02*
G01X3207Y17336D01*
G01X3169Y17300D01*
G01X3115Y17282D01*
G01X3098Y17282D01*
G01X3042Y17300D01*
G01X3007Y17336D01*
G01X2988Y17390D01*
G01X2988Y17409D01*
G01X3007Y17463D01*
G01X3042Y17500D01*
G01X3098Y17517D01*
G01X3115Y17517D01*
G01X3169Y17500D01*
G01X3207Y17463D01*
G01X3225Y17390D01*
G01X3225Y17300D01*
G01X3207Y17209D01*
G01X3169Y17155D01*
G01X3115Y17136D01*
G01X3078Y17136D01*
G01X3025Y17155D01*
G01X3007Y17190D01*
G01X2384Y16417D02*
G01X2384Y16036D01*
G01X2384Y16417D02*
G01X2511Y16417D01*
G01X2567Y16400D01*
G01X2603Y16363D01*
G01X2621Y16326D01*
G01X2640Y16273D01*
G01X2640Y16182D01*
G01X2621Y16126D01*
G01X2603Y16090D01*
G01X2567Y16055D01*
G01X2511Y16036D01*
G01X2384Y16036D01*
G01X2759Y16344D02*
G01X2796Y16363D01*
G01X2850Y16417D01*
G01X2850Y16036D01*
G01X3080Y16417D02*
G01X3025Y16400D01*
G01X2988Y16344D01*
G01X2969Y16255D01*
G01X2969Y16200D01*
G01X2988Y16109D01*
G01X3025Y16055D01*
G01X3080Y16036D01*
G01X3115Y16036D01*
G01X3169Y16055D01*
G01X3207Y16109D01*
G01X3225Y16200D01*
G01X3225Y16255D01*
G01X3207Y16344D01*
G01X3169Y16400D01*
G01X3115Y16417D01*
G01X3080Y16417D01*
G01X784Y15517D02*
G01X784Y15136D01*
G01X784Y15517D02*
G01X911Y15517D01*
G01X967Y15500D01*
G01X1003Y15463D01*
G01X1021Y15426D01*
G01X1040Y15373D01*
G01X1040Y15282D01*
G01X1021Y15226D01*
G01X1003Y15190D01*
G01X967Y15155D01*
G01X911Y15136D01*
G01X784Y15136D01*
G01X1159Y15444D02*
G01X1196Y15463D01*
G01X1250Y15517D01*
G01X1250Y15136D01*
G01X1369Y15444D02*
G01X1407Y15463D01*
G01X1461Y15517D01*
G01X1461Y15136D01*
G01X1909Y15590D02*
G01X1580Y15009D01*
G01X2028Y15517D02*
G01X2028Y15136D01*
G01X2028Y15517D02*
G01X2173Y15136D01*
G01X2319Y15517D02*
G01X2173Y15136D01*
G01X2319Y15517D02*
G01X2319Y15136D01*
G01X2548Y15517D02*
G01X2511Y15500D01*
G01X2476Y15463D01*
G01X2457Y15426D01*
G01X2440Y15373D01*
G01X2440Y15282D01*
G01X2457Y15226D01*
G01X2476Y15190D01*
G01X2511Y15155D01*
G01X2548Y15136D01*
G01X2621Y15136D01*
G01X2657Y15155D01*
G01X2694Y15190D01*
G01X2711Y15226D01*
G01X2730Y15282D01*
G01X2730Y15373D01*
G01X2711Y15426D01*
G01X2694Y15463D01*
G01X2657Y15500D01*
G01X2621Y15517D01*
G01X2548Y15517D01*
G01X3105Y15463D02*
G01X3069Y15500D01*
G01X3013Y15517D01*
G01X2940Y15517D01*
G01X2886Y15500D01*
G01X2850Y15463D01*
G01X2850Y15426D01*
G01X2869Y15390D01*
G01X2886Y15373D01*
G01X2923Y15355D01*
G01X3032Y15317D01*
G01X3069Y15300D01*
G01X3086Y15282D01*
G01X3105Y15244D01*
G01X3105Y15190D01*
G01X3069Y15155D01*
G01X3013Y15136D01*
G01X2940Y15136D01*
G01X2886Y15155D01*
G01X2850Y15190D01*
G01X3225Y15517D02*
G01X3225Y15136D01*
G01X11335Y15317D02*
G01X11535Y15317D01*
G01X11427Y15173D01*
G01X11481Y15173D01*
G01X11518Y15155D01*
G01X11535Y15136D01*
G01X11555Y15082D01*
G01X11555Y15044D01*
G01X11535Y14990D01*
G01X11500Y14955D01*
G01X11444Y14936D01*
G01X11390Y14936D01*
G01X11335Y14955D01*
G01X11318Y14973D01*
G01X11300Y15009D01*
G01X11675Y15317D02*
G01X11819Y14936D01*
G01X11964Y15317D02*
G01X11819Y14936D01*
G01X12122Y15317D02*
G01X12322Y15317D01*
G01X12213Y15173D01*
G01X12267Y15173D01*
G01X12303Y15155D01*
G01X12322Y15136D01*
G01X12339Y15082D01*
G01X12339Y15044D01*
G01X12322Y14990D01*
G01X12285Y14955D01*
G01X12231Y14936D01*
G01X12176Y14936D01*
G01X12122Y14955D01*
G01X12103Y14973D01*
G01X12085Y15009D01*
G01X11444Y16417D02*
G01X11300Y16036D01*
G01X11444Y16417D02*
G01X11590Y16036D01*
G01X11355Y16163D02*
G01X11535Y16163D01*
G01X11710Y16417D02*
G01X11710Y16036D01*
G01X11710Y16417D02*
G01X11875Y16417D01*
G01X11928Y16400D01*
G01X11947Y16382D01*
G01X11964Y16344D01*
G01X11964Y16309D01*
G01X11947Y16273D01*
G01X11928Y16255D01*
G01X11875Y16236D01*
G01X11710Y16236D01*
G01X11838Y16236D02*
G01X11964Y16036D01*
G01X12085Y16417D02*
G01X12085Y16036D01*
G01X12085Y16417D02*
G01X12322Y16417D01*
G01X12085Y16236D02*
G01X12231Y16236D01*
G01X12085Y16036D02*
G01X12322Y16036D01*
G01X12442Y16417D02*
G01X12442Y16036D01*
G01X12442Y16417D02*
G01X12677Y16417D01*
G01X12442Y16236D02*
G01X12586Y16236D01*
G01X11444Y17317D02*
G01X11300Y16936D01*
G01X11444Y17317D02*
G01X11590Y16936D01*
G01X11355Y17063D02*
G01X11535Y17063D01*
G01X11819Y17317D02*
G01X11764Y17300D01*
G01X11728Y17244D01*
G01X11710Y17155D01*
G01X11710Y17100D01*
G01X11728Y17009D01*
G01X11764Y16955D01*
G01X11819Y16936D01*
G01X11856Y16936D01*
G01X11910Y16955D01*
G01X11947Y17009D01*
G01X11964Y17100D01*
G01X11964Y17155D01*
G01X11947Y17244D01*
G01X11910Y17300D01*
G01X11856Y17317D01*
G01X11819Y17317D01*
G01X11444Y18417D02*
G01X11300Y18036D01*
G01X11444Y18417D02*
G01X11590Y18036D01*
G01X11355Y18163D02*
G01X11535Y18163D01*
G01X11710Y18344D02*
G01X11747Y18363D01*
G01X11802Y18417D01*
G01X11802Y18036D01*
G01X11444Y19317D02*
G01X11300Y18936D01*
G01X11444Y19317D02*
G01X11590Y18936D01*
G01X11355Y19063D02*
G01X11535Y19063D01*
G01X11728Y19227D02*
G01X11728Y19244D01*
G01X11747Y19282D01*
G01X11764Y19300D01*
G01X11802Y19317D01*
G01X11875Y19317D01*
G01X11910Y19300D01*
G01X11928Y19282D01*
G01X11947Y19244D01*
G01X11947Y19209D01*
G01X11928Y19173D01*
G01X11893Y19117D01*
G01X11710Y18936D01*
G01X11964Y18936D01*
G01X11444Y20417D02*
G01X11300Y20036D01*
G01X11444Y20417D02*
G01X11590Y20036D01*
G01X11355Y20163D02*
G01X11535Y20163D01*
G01X11747Y20417D02*
G01X11947Y20417D01*
G01X11838Y20273D01*
G01X11893Y20273D01*
G01X11928Y20255D01*
G01X11947Y20236D01*
G01X11964Y20182D01*
G01X11964Y20144D01*
G01X11947Y20090D01*
G01X11910Y20055D01*
G01X11856Y20036D01*
G01X11802Y20036D01*
G01X11747Y20055D01*
G01X11728Y20073D01*
G01X11710Y20109D01*
G01X11444Y21417D02*
G01X11300Y21036D01*
G01X11444Y21417D02*
G01X11590Y21036D01*
G01X11355Y21163D02*
G01X11535Y21163D01*
G01X11893Y21417D02*
G01X11710Y21163D01*
G01X11984Y21163D01*
G01X11893Y21417D02*
G01X11893Y21036D01*
G01X11444Y22417D02*
G01X11300Y22036D01*
G01X11444Y22417D02*
G01X11590Y22036D01*
G01X11355Y22163D02*
G01X11535Y22163D01*
G01X11928Y22417D02*
G01X11747Y22417D01*
G01X11728Y22255D01*
G01X11747Y22273D01*
G01X11802Y22290D01*
G01X11856Y22290D01*
G01X11910Y22273D01*
G01X11947Y22236D01*
G01X11964Y22182D01*
G01X11964Y22144D01*
G01X11947Y22090D01*
G01X11910Y22055D01*
G01X11856Y22036D01*
G01X11802Y22036D01*
G01X11747Y22055D01*
G01X11728Y22073D01*
G01X11710Y22109D01*
G01X11444Y23317D02*
G01X11300Y22936D01*
G01X11444Y23317D02*
G01X11590Y22936D01*
G01X11355Y23063D02*
G01X11535Y23063D01*
G01X11928Y23263D02*
G01X11910Y23300D01*
G01X11856Y23317D01*
G01X11819Y23317D01*
G01X11764Y23300D01*
G01X11728Y23244D01*
G01X11710Y23155D01*
G01X11710Y23063D01*
G01X11728Y22990D01*
G01X11764Y22955D01*
G01X11819Y22936D01*
G01X11838Y22936D01*
G01X11893Y22955D01*
G01X11928Y22990D01*
G01X11947Y23044D01*
G01X11947Y23063D01*
G01X11928Y23117D01*
G01X11893Y23155D01*
G01X11838Y23173D01*
G01X11819Y23173D01*
G01X11764Y23155D01*
G01X11728Y23117D01*
G01X11710Y23063D01*
G01X11444Y24417D02*
G01X11300Y24036D01*
G01X11444Y24417D02*
G01X11590Y24036D01*
G01X11355Y24163D02*
G01X11535Y24163D01*
G01X11964Y24417D02*
G01X11784Y24036D01*
G01X11710Y24417D02*
G01X11964Y24417D01*
G01X11300Y26417D02*
G01X11300Y26036D01*
G01X11300Y26417D02*
G01X11464Y26417D01*
G01X11518Y26400D01*
G01X11535Y26382D01*
G01X11555Y26344D01*
G01X11555Y26309D01*
G01X11535Y26273D01*
G01X11518Y26255D01*
G01X11464Y26236D01*
G01X11300Y26236D01*
G01X11427Y26236D02*
G01X11555Y26036D01*
G01X11675Y26417D02*
G01X11675Y26036D01*
G01X11675Y26417D02*
G01X11910Y26417D01*
G01X11675Y26236D02*
G01X11819Y26236D01*
G01X11675Y26036D02*
G01X11910Y26036D01*
G01X12285Y26363D02*
G01X12248Y26400D01*
G01X12194Y26417D01*
G01X12122Y26417D01*
G01X12067Y26400D01*
G01X12031Y26363D01*
G01X12031Y26327D01*
G01X12048Y26290D01*
G01X12067Y26273D01*
G01X12103Y26255D01*
G01X12213Y26217D01*
G01X12248Y26200D01*
G01X12267Y26182D01*
G01X12285Y26144D01*
G01X12285Y26090D01*
G01X12248Y26055D01*
G01X12194Y26036D01*
G01X12122Y26036D01*
G01X12067Y26055D01*
G01X12031Y26090D01*
G01X12405Y26417D02*
G01X12405Y26036D01*
G01X12405Y26417D02*
G01X12642Y26417D01*
G01X12405Y26236D02*
G01X12551Y26236D01*
G01X12405Y26036D02*
G01X12642Y26036D01*
G01X12889Y26417D02*
G01X12889Y26036D01*
G01X12761Y26417D02*
G01X13015Y26417D01*
G54D24*
G01X19305Y953D02*
G01X19305Y626D01*
G01X19284Y565D01*
G01X19264Y544D01*
G01X19222Y525D01*
G01X19181Y525D01*
G01X19140Y544D01*
G01X19119Y565D01*
G01X19100Y626D01*
G01X19100Y667D01*
G01X19439Y953D02*
G01X19439Y525D01*
G01X19439Y953D02*
G01X19623Y953D01*
G01X19685Y934D01*
G01X19705Y913D01*
G01X19726Y871D01*
G01X19726Y811D01*
G01X19705Y769D01*
G01X19685Y750D01*
G01X19623Y728D01*
G01X19439Y728D01*
G01X19860Y871D02*
G01X19902Y892D01*
G01X19963Y953D01*
G01X19963Y525D01*
G01X13955Y1653D02*
G01X13955Y1326D01*
G01X13934Y1265D01*
G01X13914Y1244D01*
G01X13872Y1225D01*
G01X13831Y1225D01*
G01X13790Y1244D01*
G01X13769Y1265D01*
G01X13750Y1326D01*
G01X13750Y1367D01*
G01X14089Y1653D02*
G01X14089Y1225D01*
G01X14089Y1653D02*
G01X14273Y1653D01*
G01X14335Y1634D01*
G01X14355Y1613D01*
G01X14376Y1571D01*
G01X14376Y1511D01*
G01X14355Y1469D01*
G01X14335Y1450D01*
G01X14273Y1428D01*
G01X14089Y1428D01*
G01X14531Y1551D02*
G01X14531Y1571D01*
G01X14552Y1613D01*
G01X14572Y1634D01*
G01X14613Y1653D01*
G01X14694Y1653D01*
G01X14735Y1634D01*
G01X14756Y1613D01*
G01X14777Y1571D01*
G01X14777Y1530D01*
G01X14756Y1490D01*
G01X14714Y1428D01*
G01X14510Y1225D01*
G01X14797Y1225D01*
G01X25955Y2853D02*
G01X25955Y2526D01*
G01X25934Y2465D01*
G01X25914Y2444D01*
G01X25872Y2425D01*
G01X25831Y2425D01*
G01X25790Y2444D01*
G01X25769Y2465D01*
G01X25750Y2526D01*
G01X25750Y2567D01*
G01X26089Y2853D02*
G01X26089Y2425D01*
G01X26089Y2853D02*
G01X26273Y2853D01*
G01X26335Y2834D01*
G01X26355Y2813D01*
G01X26376Y2771D01*
G01X26376Y2711D01*
G01X26355Y2669D01*
G01X26335Y2650D01*
G01X26273Y2628D01*
G01X26089Y2628D01*
G01X26552Y2853D02*
G01X26777Y2853D01*
G01X26653Y2690D01*
G01X26714Y2690D01*
G01X26756Y2669D01*
G01X26777Y2650D01*
G01X26797Y2588D01*
G01X26797Y2546D01*
G01X26777Y2486D01*
G01X26735Y2444D01*
G01X26675Y2425D01*
G01X26613Y2425D01*
G01X26552Y2444D01*
G01X26531Y2465D01*
G01X26510Y2505D01*
G01X24422Y8253D02*
G01X24381Y8234D01*
G01X24340Y8192D01*
G01X24319Y8151D01*
G01X24300Y8090D01*
G01X24300Y7988D01*
G01X24319Y7926D01*
G01X24340Y7886D01*
G01X24381Y7844D01*
G01X24422Y7825D01*
G01X24505Y7825D01*
G01X24544Y7844D01*
G01X24585Y7886D01*
G01X24606Y7926D01*
G01X24627Y7988D01*
G01X24627Y8090D01*
G01X24606Y8151D01*
G01X24585Y8192D01*
G01X24544Y8234D01*
G01X24505Y8253D01*
G01X24422Y8253D01*
G01X24484Y7905D02*
G01X24606Y7784D01*
G01X24761Y8171D02*
G01X24802Y8192D01*
G01X24864Y8253D01*
G01X24864Y7825D01*
G01X4405Y2353D02*
G01X4405Y2026D01*
G01X4384Y1965D01*
G01X4363Y1944D01*
G01X4323Y1925D01*
G01X4282Y1925D01*
G01X4240Y1944D01*
G01X4219Y1965D01*
G01X4200Y2026D01*
G01X4200Y2067D01*
G01X4540Y2353D02*
G01X4540Y1925D01*
G01X4540Y2353D02*
G01X4723Y2353D01*
G01X4785Y2334D01*
G01X4805Y2313D01*
G01X4826Y2271D01*
G01X4826Y2211D01*
G01X4805Y2169D01*
G01X4785Y2150D01*
G01X4723Y2128D01*
G01X4540Y2128D01*
G01X5164Y2353D02*
G01X4960Y2067D01*
G01X5268Y2067D01*
G01X5164Y2353D02*
G01X5164Y1925D01*
G01X1600Y9553D02*
G01X1600Y9125D01*
G01X1600Y9553D02*
G01X1742Y9553D01*
G01X1805Y9534D01*
G01X1844Y9492D01*
G01X1865Y9451D01*
G01X1886Y9390D01*
G01X1886Y9288D01*
G01X1865Y9226D01*
G01X1844Y9186D01*
G01X1805Y9144D01*
G01X1742Y9125D01*
G01X1600Y9125D01*
G01X2021Y9471D02*
G01X2061Y9492D01*
G01X2123Y9553D01*
G01X2123Y9125D01*
G01X6350Y9553D02*
G01X6350Y9125D01*
G01X6350Y9553D02*
G01X6493Y9553D01*
G01X6555Y9534D01*
G01X6594Y9492D01*
G01X6615Y9451D01*
G01X6635Y9390D01*
G01X6635Y9288D01*
G01X6615Y9226D01*
G01X6594Y9186D01*
G01X6555Y9144D01*
G01X6493Y9125D01*
G01X6350Y9125D01*
G01X6792Y9451D02*
G01X6792Y9471D01*
G01X6811Y9513D01*
G01X6832Y9534D01*
G01X6873Y9553D01*
G01X6955Y9553D01*
G01X6996Y9534D01*
G01X7017Y9513D01*
G01X7036Y9471D01*
G01X7036Y9430D01*
G01X7017Y9390D01*
G01X6976Y9328D01*
G01X6771Y9125D01*
G01X7057Y9125D01*
G54D23*
G75*
G01X24400Y7724D02*
G03X23676Y5976I0J-1024D01*
G01*
G75*
G01X24400Y7724D02*
G02X25124Y5976I0J-1024D01*
G01*
G54D10*
G75*
G01X2450Y7250D02*
G02X2450Y8750I-700J750D01*
G01*
G75*
G01X7200Y7250D02*
G02X7200Y8750I-700J750D01*
G01*
M00*
M02*
