;Layer: Drill PTH
;EasyEDA v6.3.22, 2020-03-08T18:10:28+01:00
;ad07acf79a374764822efb46aa97c54e,8b17585b6d3b4194b9f3377f08818917,10
;Gerber Generator version 0.2
M48
INCH,LZ,00.0000
;Holesize 1 = 0.024 INCH
T01C0.024
;Holesize 2 = 0.035 INCH
T02C0.035
;Holesize 3 = 0.035 INCH
T03C0.035
;Holesize 4 = 0.036 INCH
T04C0.036
;Holesize 5 = 0.039 INCH
T05C0.039
;Holesize 6 = 0.040 INCH
T06C0.040
%
G05
G90
T01
X+024400Y+007198G85X+024400Y+007201
X+024900Y+006698G85X+024900Y+006701
X+023900Y+006698G85X+023900Y+006701
T02
X+013550Y+009900
X+014550Y+009900
X+015550Y+009900
X+016550Y+009900
X+029400Y+008450
X+030400Y+008450
X+031400Y+008450
X+032400Y+008450
X+029550Y+006100
X+030550Y+006100
X+031550Y+006100
X+032550Y+006100
X+013550Y+007700
X+014550Y+007700
X+015550Y+007700
X+016550Y+007700
X+013600Y+005200
X+014600Y+005200
X+015600Y+005200
X+016600Y+005200
X+001200Y+008000
X+002200Y+008000
X+005950Y+008000
X+006950Y+008000
T03
X+001033Y+005050
X+005166Y+005050
X+007333Y+004950
X+011466Y+004950
T04
X+004200Y+028200
X+004200Y+027200
X+004200Y+026200
X+004200Y+025200
X+004200Y+024200
X+004200Y+023200
X+004200Y+022200
X+004200Y+021200
X+004200Y+020200
X+004200Y+019200
X+004200Y+018200
X+004200Y+017200
X+004200Y+016200
X+004200Y+015200
X+004200Y+014200
X+010200Y+028200
X+010200Y+027200
X+010200Y+026200
X+010200Y+025200
X+010200Y+024200
X+010200Y+023200
X+010200Y+022200
X+010200Y+021200
X+010200Y+020200
X+010200Y+019200
X+010200Y+018200
X+010200Y+017200
X+010200Y+016200
X+010200Y+015200
X+010200Y+014200
T05
X+027050Y+010200
X+026050Y+010200
X+025050Y+010200
T06
X+020095Y+013100G85X+020097Y+013100
X+021095Y+013100G85X+021097Y+013100
X+022095Y+013100G85X+022097Y+013100
X+023095Y+013100G85X+023097Y+013100
X+024095Y+013100G85X+024097Y+013100
X+025095Y+013100G85X+025097Y+013100
X+026095Y+013100G85X+026097Y+013100
X+027094Y+013100G85X+027097Y+013100
X+020095Y+028879G85X+020097Y+028879
X+021095Y+028879G85X+021097Y+028879
X+022095Y+028879G85X+022097Y+028879
X+023095Y+028879G85X+023097Y+028879
X+024095Y+028879G85X+024097Y+028879
X+025095Y+028879G85X+025097Y+028879
X+026095Y+028879G85X+026097Y+028879
X+027094Y+028879G85X+027097Y+028879
X+019100Y+001950
X+020100Y+001950
X+012250Y+002000
X+013250Y+002000
X+025250Y+001900
X+026250Y+001900
X+001550Y+002850
X+002550Y+002850
X+003550Y+002850
M30
