G04 Layer: TopSolderMaskLayer*
G04 EasyEDA v6.3.22, 2020-03-08T18:10:28+01:00*
G04 ad07acf79a374764822efb46aa97c54e,8b17585b6d3b4194b9f3377f08818917,10*
G04 Gerber Generator version 0.2*
G04 Scale: 100 percent, Rotated: No, Reflected: No *
G04 Dimensions in inches *
G04 leading zeros omitted , absolute positions ,2 integer and 4 decimal *
%FSLAX24Y24*%
%MOIN*%
G90*
G70D02*

%ADD15C,0.070000*%
%ADD25C,0.082000*%
%ADD27C,0.078000*%
%ADD28C,0.047370*%
%ADD31C,0.073000*%

%LPD*%
G54D25*
G01X20096Y13100D03*
G01X21096Y13100D03*
G01X22096Y13100D03*
G01X23096Y13100D03*
G01X24096Y13100D03*
G01X25096Y13100D03*
G01X26096Y13100D03*
G01X27096Y13100D03*
G01X20096Y28879D03*
G01X21096Y28879D03*
G01X22096Y28879D03*
G01X23096Y28879D03*
G01X24096Y28879D03*
G01X25096Y28879D03*
G01X26096Y28879D03*
G01X27096Y28879D03*
G01X1033Y5050D03*
G01X5166Y5050D03*
G01X7333Y4950D03*
G01X11466Y4950D03*
G36*
G01X13200Y9550D02*
G01X13200Y10250D01*
G01X13900Y10250D01*
G01X13900Y9550D01*
G01X13200Y9550D01*
G37*
G54D15*
G01X14550Y9900D03*
G01X15550Y9900D03*
G01X16550Y9900D03*
G36*
G01X29050Y8100D02*
G01X29050Y8800D01*
G01X29750Y8800D01*
G01X29750Y8100D01*
G01X29050Y8100D01*
G37*
G01X30400Y8450D03*
G01X31400Y8450D03*
G01X32400Y8450D03*
G36*
G01X29200Y5750D02*
G01X29200Y6450D01*
G01X29900Y6450D01*
G01X29900Y5750D01*
G01X29200Y5750D01*
G37*
G01X30550Y6100D03*
G01X31550Y6100D03*
G01X32550Y6100D03*
G36*
G01X13200Y7350D02*
G01X13200Y8050D01*
G01X13900Y8050D01*
G01X13900Y7350D01*
G01X13200Y7350D01*
G37*
G01X14550Y7700D03*
G01X15550Y7700D03*
G01X16550Y7700D03*
G36*
G01X13250Y4850D02*
G01X13250Y5550D01*
G01X13950Y5550D01*
G01X13950Y4850D01*
G01X13250Y4850D01*
G37*
G01X14600Y5200D03*
G01X15600Y5200D03*
G01X16600Y5200D03*
G36*
G01X26660Y9809D02*
G01X26660Y10590D01*
G01X27439Y10590D01*
G01X27439Y9809D01*
G01X26660Y9809D01*
G37*
G36*
G01X25660Y9809D02*
G01X25660Y10590D01*
G01X26439Y10590D01*
G01X26439Y9809D01*
G01X25660Y9809D01*
G37*
G36*
G01X24660Y9809D02*
G01X24660Y10590D01*
G01X25439Y10590D01*
G01X25439Y9809D01*
G01X24660Y9809D01*
G37*
G36*
G01X3809Y27809D02*
G01X3809Y28590D01*
G01X4590Y28590D01*
G01X4590Y27809D01*
G01X3809Y27809D01*
G37*
G54D27*
G01X4200Y27200D03*
G01X4200Y26200D03*
G01X4200Y25200D03*
G01X4200Y24200D03*
G01X4200Y23200D03*
G01X4200Y22200D03*
G01X4200Y21200D03*
G01X4200Y20200D03*
G01X4200Y19200D03*
G01X4200Y18200D03*
G01X4200Y17200D03*
G01X4200Y16200D03*
G01X4200Y15200D03*
G01X4200Y14200D03*
G01X10200Y28200D03*
G01X10200Y27200D03*
G01X10200Y26200D03*
G01X10200Y25200D03*
G01X10200Y24200D03*
G01X10200Y23200D03*
G01X10200Y22200D03*
G01X10200Y21200D03*
G01X10200Y20200D03*
G01X10200Y19200D03*
G01X10200Y18200D03*
G01X10200Y17200D03*
G01X10200Y16200D03*
G01X10200Y15200D03*
G01X10200Y14200D03*
G54D25*
G01X19100Y1950D03*
G01X20100Y1950D03*
G01X12250Y2000D03*
G01X13250Y2000D03*
G01X25250Y1900D03*
G01X26250Y1900D03*
G54D28*
G01X24400Y7200D03*
G01X24900Y6700D03*
G36*
G01X23663Y6463D02*
G01X23663Y6936D01*
G01X24136Y6936D01*
G01X24136Y6463D01*
G01X23663Y6463D01*
G37*
G54D25*
G01X1550Y2850D03*
G01X2550Y2850D03*
G01X3550Y2850D03*
G36*
G01X834Y7634D02*
G01X834Y8365D01*
G01X1565Y8365D01*
G01X1565Y7634D01*
G01X834Y7634D01*
G37*
G54D31*
G01X2200Y8000D03*
G36*
G01X5585Y7634D02*
G01X5585Y8365D01*
G01X6314Y8365D01*
G01X6314Y7634D01*
G01X5585Y7634D01*
G37*
G01X6950Y8000D03*
M00*
M02*
